<svg width="32" height="32" viewBox="0 0 32 32" fill="none"
    xmlns="http://www.w3.org/2000/svg">
    <path fill-rule="evenodd" clip-rule="evenodd" d="M0 16C0 7.16344 7.16344 0 16 0C24.8366 0 32 7.16344 32 16C32 24.8366 24.8366 32 16 32C7.16344 32 0 24.8366 0 16Z" fill="#E5F4F2"/>
    <path fill-rule="evenodd" clip-rule="evenodd" d="M18.3723 12.4464H22.8919V11.1515H18.3723V12.4464ZM19.443 15.2717C19.155 15.5647 18.9734 15.9617 18.8991 16.4626H22.4142C22.3771 15.928 22.1945 15.5241 21.8714 15.246C21.5442 14.9698 21.1419 14.8322 20.6602 14.8322C20.1384 14.8322 19.731 14.9787 19.443 15.2717ZM22.4935 13.5334C23.0383 13.7729 23.4869 14.1531 23.8401 14.6718C24.1622 15.1292 24.3689 15.6598 24.4632 16.2627C24.5184 16.6151 24.5405 17.1259 24.5315 17.7901H18.8489C18.883 18.5613 19.152 19.1028 19.6657 19.4127C19.9768 19.6057 20.3511 19.7027 20.7906 19.7027C21.2532 19.7027 21.6315 19.5849 21.9215 19.3503C22.081 19.2226 22.2215 19.0464 22.3419 18.8207H24.4241C24.3689 19.2761 24.116 19.7403 23.6685 20.2116C22.9701 20.959 21.9917 21.3332 20.7344 21.3332C19.6958 21.3332 18.7797 21.0184 17.988 20.3868C17.1922 19.7562 16.7969 18.7286 16.7969 17.3071C16.7969 15.9736 17.1551 14.951 17.8706 14.2392C18.588 13.5294 19.5162 13.172 20.6592 13.172C21.3385 13.172 21.9496 13.2928 22.4935 13.5334ZM9.569 16.4903V19.2652H12.1298C12.5874 19.2652 12.9446 19.2038 13.1985 19.082C13.6611 18.8543 13.8919 18.4227 13.8919 17.7832C13.8919 17.2407 13.6691 16.8695 13.2206 16.6666C12.9697 16.5537 12.6175 16.4943 12.1659 16.4903H9.569ZM9.569 12.4731V14.7688H12.1338C12.5904 14.7688 12.9627 14.6827 13.2497 14.5104C13.5346 14.3382 13.6781 14.0333 13.6781 13.5977C13.6781 13.1116 13.4895 12.7919 13.1122 12.6355C12.7851 12.5276 12.3696 12.4731 11.8649 12.4731H9.569ZM15.2967 11.7752C15.6188 12.2177 15.7804 12.7464 15.7804 13.3631C15.7804 13.9977 15.6188 14.5095 15.2927 14.8956C15.1101 15.1114 14.8422 15.3093 14.488 15.4875C15.0258 15.6816 15.4312 15.9875 15.7071 16.4062C15.9801 16.824 16.1176 17.3328 16.1176 17.9307C16.1176 18.5475 15.961 19.1008 15.6469 19.5899C15.4483 19.9136 15.1994 20.1868 14.9004 20.4086C14.5642 20.663 14.1678 20.8362 13.7093 20.9313C13.2507 21.0253 12.755 21.0708 12.2191 21.0708H7.4668V10.6665H12.5633C13.8498 10.6853 14.7599 11.0546 15.2967 11.7752Z" fill="#898D8F"/>
</svg>
