<svg width="125" height="24" viewBox="0 0 125 24" fill="none"
    xmlns="http://www.w3.org/2000/svg">
    <path d="M26.8838 7.58361C22.5849 7.58361 19.2258 10.6712 19.2258 14.8045C19.2258 18.9389 22.5 21.999 26.8838 21.999C31.2676 21.999 34.5987 18.885 34.5987 14.7781C34.5977 10.6976 31.3246 7.58361 26.8838 7.58361ZM26.9118 19.0202C24.4636 19.0202 22.6697 17.2213 22.6697 14.8055C22.6697 12.3623 24.4346 10.5645 26.8827 10.5645C29.3599 10.5645 31.1527 12.3898 31.1527 14.8055C31.1538 17.2213 29.3599 19.0202 26.9118 19.0202ZM35.5376 10.725H37.6731V21.7317H41.0891V7.85294H35.5376V10.725ZM10.629 10.5634C12.4229 10.5634 13.8462 11.6102 14.3865 13.1672H18.0023C17.3471 9.83881 14.4435 7.58361 10.658 7.58361C6.35903 7.58361 3 10.6712 3 14.8045C3 18.9389 6.27417 21.999 10.658 21.999C14.3586 21.999 17.3191 19.7438 17.9744 16.3879H14.3876C13.8752 17.9449 12.4519 19.0192 10.658 19.0192C8.18088 19.0192 6.44497 17.2203 6.44497 14.8045C6.44389 12.3623 8.15188 10.5634 10.629 10.5634ZM100.443 13.463L97.938 13.1144C96.7424 12.9538 95.8885 12.5778 95.8885 11.6916C95.8885 10.725 96.9992 10.2423 98.5074 10.2423C100.158 10.2423 101.212 10.9131 101.44 12.0137H104.742C104.371 9.22191 102.094 7.58463 98.5933 7.58463C94.9775 7.58463 92.5863 9.32964 92.5863 11.7993C92.5863 14.1612 94.1525 15.5312 97.3118 15.9601L99.8168 16.3087C101.041 16.4692 101.725 16.9266 101.725 17.7854C101.725 18.886 100.529 19.3423 98.878 19.3423C96.8563 19.3423 95.7177 18.5639 95.5469 17.3829H92.1878C92.5015 20.0944 94.7498 22 98.849 22C102.579 22 105.055 20.3891 105.055 17.6238C105.055 15.1541 103.261 13.8654 100.443 13.463ZM39.38 2.13415C38.1275 2.13415 37.1876 2.99294 37.1876 4.17389C37.1876 5.35485 38.1275 6.21464 39.38 6.21464C40.6325 6.21464 41.5725 5.35586 41.5725 4.17491C41.5725 2.99395 40.6336 2.13415 39.38 2.13415ZM89.5109 12.6042C89.5109 9.59795 87.5752 7.58463 83.476 7.58463C79.6046 7.58463 77.4412 9.43737 77.0136 12.283H80.4017C80.5725 11.1824 81.4834 10.2697 83.4191 10.2697C85.1561 10.2697 86.0101 10.9944 86.0101 11.8806C86.0101 13.0351 84.4439 13.3298 82.5082 13.5179C79.8893 13.7862 76.6441 14.645 76.6441 17.8667C76.6441 20.3637 78.6088 21.9736 81.7401 21.9736C84.1882 21.9736 85.7254 21.0071 86.4945 19.4765C86.6084 20.8455 87.6901 21.7317 89.1994 21.7317H91.192V18.8596H89.512V12.6042H89.5109ZM86.1519 16.0942C86.1519 17.947 84.4439 19.3159 82.3653 19.3159C81.0838 19.3159 80.0021 18.8057 80.0021 17.7325C80.0021 16.3635 81.7391 15.9875 83.3332 15.8269C84.8704 15.6928 85.7243 15.3706 86.1519 14.7527V16.0942ZM68.0183 7.58361C66.1105 7.58361 64.5164 8.33569 63.3777 9.59693V2H59.9617V21.7317H63.3208V19.9064C64.4594 21.2215 66.0825 22 68.0183 22C72.1174 22 75.2208 18.9399 75.2208 14.8055C75.2208 10.6712 72.0605 7.58361 68.0183 7.58361ZM67.5059 19.0202C65.0578 19.0202 63.2638 17.2213 63.2638 14.8055C63.2638 12.3898 65.0857 10.5645 67.5338 10.5645C70.0109 10.5645 71.7468 12.3633 71.7468 14.8055C71.7479 17.2213 69.954 19.0202 67.5059 19.0202ZM51.7924 7.58361C49.5721 7.58361 48.1197 8.4424 47.2657 9.65079V7.85192H43.8777V21.7307H47.2937V14.1876C47.2937 12.0666 48.717 10.5634 50.8235 10.5634C52.7882 10.5634 54.0117 11.8785 54.0117 13.7852V21.7317H57.4277V13.5443C57.4288 10.0543 55.521 7.58361 51.7924 7.58361ZM121.337 14.3492C121.337 10.3764 118.263 7.58463 114.135 7.58463C109.751 7.58463 106.534 10.6986 106.534 14.8055C106.534 19.1279 109.979 22 114.192 22C117.751 22 120.54 20.0131 121.251 17.1949H117.693C117.18 18.4297 115.928 19.1279 114.248 19.1279C112.055 19.1279 110.404 17.8392 110.035 15.584H121.336V14.3492H121.337ZM110.236 13.275C110.777 11.3419 112.314 10.4029 114.079 10.4029C116.015 10.4029 117.495 11.4497 117.837 13.275H110.236Z" fill="#0052FE"/>
</svg>
