<svg width="64" height="65" viewBox="0 0 64 65" fill="none"
    xmlns="http://www.w3.org/2000/svg">
    <circle cx="32" cy="32.5" r="32" fill="currentColor" fill-opacity="0.2"/>
    <path d="M42.4404 21.9275L34.1387 18.23C32.9204 17.6917 31.0787 17.6917 29.8604 18.23L21.5587 21.9275C19.4621 22.8625 19.1504 24.1375 19.1504 24.8175C19.1504 25.4975 19.4621 26.7725 21.5587 27.7075L29.8604 31.405C30.4696 31.6742 31.2346 31.8158 31.9996 31.8158C32.7646 31.8158 33.5296 31.6742 34.1387 31.405L42.4404 27.7075C44.5371 26.7725 44.8487 25.4975 44.8487 24.8175C44.8487 24.1375 44.5512 22.8625 42.4404 21.9275Z" fill="currentColor"/>
    <path opacity="0.4" d="M32.0004 39.14C31.4621 39.14 30.9238 39.0267 30.4279 38.8142L20.8796 34.5642C19.4204 33.9125 18.2871 32.17 18.2871 30.5692C18.2871 29.9883 18.7546 29.5208 19.3354 29.5208C19.9163 29.5208 20.3838 29.9883 20.3838 30.5692C20.3838 31.3342 21.0213 32.3258 21.7296 32.6375L31.2779 36.8875C31.7313 37.0858 32.2554 37.0858 32.7088 36.8875L42.2571 32.6375C42.9654 32.3258 43.6029 31.3483 43.6029 30.5692C43.6029 29.9883 44.0704 29.5208 44.6513 29.5208C45.2321 29.5208 45.6996 29.9883 45.6996 30.5692C45.6996 32.1558 44.5663 33.9125 43.1071 34.5642L33.5588 38.8142C33.0771 39.0267 32.5388 39.14 32.0004 39.14Z" fill="currentColor"/>
    <path opacity="0.4" d="M32.0004 46.1667C31.4621 46.1667 30.9238 46.0533 30.4279 45.8408L20.8796 41.5908C19.3071 40.8967 18.2871 39.3242 18.2871 37.5958C18.2871 37.015 18.7546 36.5475 19.3354 36.5475C19.9163 36.5475 20.3838 37.015 20.3838 37.5958C20.3838 38.4883 20.9079 39.2958 21.7296 39.6642L31.2779 43.9142C31.7313 44.1125 32.2554 44.1125 32.7088 43.9142L42.2571 39.6642C43.0646 39.31 43.6029 38.4883 43.6029 37.5958C43.6029 37.015 44.0704 36.5475 44.6513 36.5475C45.2321 36.5475 45.6996 37.015 45.6996 37.5958C45.6996 39.3242 44.6796 40.8825 43.1071 41.5908L33.5588 45.8408C33.0771 46.0533 32.5388 46.1667 32.0004 46.1667Z" fill="currentColor"/>
</svg>
