<svg width="118" height="24" viewBox="0 0 118 24" fill="none"
    xmlns="http://www.w3.org/2000/svg">
    <path d="M17.2845 9.88069C18.6137 11.2099 19.6661 13.3699 19.0568 14.6438C17.4137 18.0776 5.1553 24.0961 4.12145 23.0622C3.06914 22.0284 9.10606 9.75146 12.5399 8.10838C13.8138 7.49915 15.9737 8.55146 17.2845 9.88069Z" fill="#FF8200"/>
    <path d="M23.7833 8.4224C23.5618 7.62856 23.0264 6.83471 22.2141 6.7424C20.7187 6.57625 18.3741 9.19778 18.5403 9.84394C18.7064 10.4901 22.0295 11.5793 23.2664 10.6747C23.9126 10.2316 23.9864 9.23471 23.7833 8.4224ZM19.168 1.1301C20.2756 1.42549 21.3833 2.20087 21.531 3.34548C21.771 5.43164 18.0787 8.73625 17.211 8.49625C16.3433 8.25625 14.7926 3.62241 16.0295 1.86856C16.6757 0.98241 18.0603 0.85318 19.168 1.1301Z" fill="#43B02A"/>
    <path d="M52.1581 13.4992L51.0688 13.3331C50.0165 13.1854 49.4258 12.8346 49.4258 12.2254C49.4258 11.5238 50.2196 11.0808 51.3827 11.0808C52.1396 11.1177 52.8781 11.3392 53.5242 11.7085L53.6535 11.7823C54.1519 12.0223 54.7796 11.8377 55.0381 11.3392L55.1304 11.1731C55.4258 10.6561 55.2412 10.01 54.7242 9.71461C54.7058 9.71461 54.7058 9.69615 54.6873 9.69615C53.6719 9.1423 52.5458 8.82846 51.4012 8.81C48.6135 8.81 46.8227 10.1392 46.8227 12.3177C46.8227 14.09 48.0965 15.2161 50.515 15.5485L51.6227 15.6961C52.7858 15.8623 53.3581 16.2131 53.3581 16.7485C53.3581 17.2838 53.0812 17.93 51.2719 17.93C50.275 17.9485 49.2965 17.6715 48.4473 17.1546C48.2812 17.0623 48.0965 17.0069 47.9119 17.0069C47.5427 17.0069 47.2104 17.21 47.0258 17.5054L46.9704 17.5977C46.8227 17.8377 46.7673 18.1515 46.8412 18.4284C46.915 18.7054 47.0996 18.9454 47.3396 19.0746C48.5581 19.7392 49.9058 20.1269 51.3088 20.1638C54.2258 20.1638 56.0165 18.89 56.0165 16.6561C55.9427 14.8838 54.6688 13.8685 52.1581 13.4992Z" fill="#43B02A"/>
    <path d="M85.9796 17.4124C85.7765 17.1724 85.4627 17.0432 85.1489 17.0432C84.9273 17.0432 84.7242 17.0986 84.5396 17.2278C83.9858 17.5971 83.3212 17.7817 82.6566 17.8001C80.8842 17.8001 79.6473 16.4155 79.6473 14.514C79.6473 12.6125 80.9212 11.2094 82.6566 11.2094C83.3027 11.2094 83.9489 11.394 84.5027 11.7632C84.9642 12.0401 85.555 11.9848 85.9242 11.5971L86.0165 11.4863C86.4781 11.0063 86.4596 10.2494 85.9796 9.78784C85.9242 9.73245 85.8689 9.69553 85.8135 9.6586C84.8904 9.06784 83.8196 8.75399 82.7119 8.77245C79.3519 8.77245 77.0073 11.1171 77.0073 14.4771C77.0073 17.8371 79.3519 20.1817 82.7119 20.1817C83.8012 20.2001 84.8904 19.8863 85.8135 19.2955C86.3673 18.9263 86.515 18.1694 86.1458 17.6155C86.1089 17.5786 86.0719 17.5232 86.035 17.4863L85.9796 17.4124Z" fill="#43B02A"/>
    <path d="M31.6837 4.96854C30.8344 4.96854 30.1329 5.67007 30.1514 6.53777C30.1514 6.53777 30.1514 6.53777 30.1514 6.55623C30.1144 7.40546 30.7791 8.107 31.6283 8.12546C31.6468 8.12546 31.6652 8.12546 31.7021 8.12546C32.5698 8.16238 33.3083 7.51623 33.3452 6.64854C33.3821 5.78084 32.736 5.04238 31.8683 5.00546C31.8129 5.00546 31.7575 5.00546 31.7021 5.00546V4.96854H31.6837Z" fill="#43B02A"/>
    <path d="M32.166 8.90157H31.243C30.7999 8.90157 30.4307 9.27079 30.4307 9.71387V19.1108C30.4307 19.5539 30.7999 19.9231 31.243 19.9231H32.166C32.6091 19.9231 32.9784 19.5539 32.9784 19.1108V9.71387C32.9784 9.27079 32.6091 8.90157 32.166 8.90157Z" fill="#43B02A"/>
    <path d="M62.3116 17.746C61.0932 17.746 60.0963 16.7491 60.0963 15.5306V11.2845H62.3301C62.7732 11.2845 63.1424 10.9152 63.1424 10.4722V9.7337C63.1424 9.29062 62.7732 8.92139 62.3301 8.92139H60.0778V6.48447C60.0778 6.04139 59.7086 5.67216 59.2655 5.67216H58.287C57.844 5.67216 57.4747 6.04139 57.4747 6.48447V15.3829C57.4193 17.986 59.4686 20.146 62.0901 20.2198C62.1086 20.2198 62.1086 20.2198 62.127 20.2198C62.6809 20.2198 63.1424 19.7583 63.1424 19.2045V18.5583C63.1424 18.1152 62.7732 17.746 62.3116 17.746Z" fill="#43B02A"/>
    <path d="M40.0672 8.80949C37.3348 8.73564 35.0641 10.8956 34.9902 13.6279C34.9902 13.6464 34.9902 13.6464 34.9902 13.6649V19.111C34.9902 19.5541 35.3595 19.9233 35.8025 19.9233H36.7256C37.1687 19.9233 37.5379 19.5541 37.5379 19.111V14.0526C37.5379 12.3541 38.5533 11.2464 40.0487 11.2464C41.5441 11.2464 42.5595 12.3726 42.5595 14.0526V19.111C42.5595 19.5541 42.9287 19.9233 43.3718 19.9233H44.2948C44.7379 19.9233 45.1071 19.5541 45.1071 19.111V13.6464C45.0518 10.9141 42.781 8.7541 40.0672 8.80949C40.0856 8.80949 40.0672 8.80949 40.0672 8.80949Z" fill="#43B02A"/>
    <path d="M107.138 8.93976C106.584 8.86591 106.011 8.81053 105.439 8.82899H105.31C102.614 8.82899 100.436 11.0075 100.436 13.7028V19.1121C100.436 19.5551 100.805 19.9244 101.248 19.9244H102.171C102.614 19.9244 102.984 19.5551 102.984 19.1121V13.7951C102.91 12.4659 103.944 11.3213 105.273 11.2474C105.328 11.2474 105.384 11.2474 105.439 11.2474C105.698 11.2474 105.956 11.2844 106.214 11.3398C106.288 11.3398 106.362 11.3398 106.436 11.3398C106.953 11.3398 107.396 10.989 107.525 10.4721C107.599 10.1951 107.636 9.99207 107.691 9.80745C107.728 9.60437 107.71 9.4013 107.599 9.23514C107.488 9.08745 107.322 8.97668 107.138 8.93976Z" fill="#43B02A"/>
    <path d="M113.95 11.2845C114.393 11.2845 114.762 10.9152 114.762 10.4722V9.7337C114.762 9.29062 114.393 8.92139 113.95 8.92139H111.716V6.48447C111.716 6.04139 111.347 5.67216 110.904 5.67216H109.925C109.482 5.67216 109.113 6.04139 109.113 6.48447V15.3829C109.058 17.986 111.107 20.146 113.728 20.2198C113.747 20.2198 113.747 20.2198 113.765 20.2198C114.319 20.2198 114.781 19.7583 114.781 19.2045V18.5583C114.781 18.1152 114.411 17.746 113.95 17.746C112.731 17.746 111.734 16.7491 111.734 15.5306V11.2845H113.95Z" fill="#43B02A"/>
    <path d="M96.2077 9.69597C95.2847 9.1052 94.2139 8.79136 93.1062 8.80982H93.0139C91.9247 8.79136 90.8354 9.1052 89.9124 9.69597C88.2878 10.7483 87.3462 12.576 87.4201 14.5144C87.4201 16.7298 88.4539 18.5206 90.1339 19.4806C90.9647 19.9606 91.8877 20.219 92.8477 20.219C94.1031 20.256 95.3031 19.7206 96.1339 18.7606V19.1483C96.1339 19.5914 96.5031 19.9606 96.9462 19.9606H97.8877C98.3308 19.9606 98.7001 19.5914 98.7001 19.1483V14.5329C98.7924 12.576 97.8324 10.7483 96.2077 9.69597ZM94.0847 17.6344C93.7893 17.7267 93.4939 17.7821 93.1985 17.8006H92.9585C92.6631 17.7821 92.3678 17.7267 92.0724 17.6344C90.817 17.136 90.0047 15.899 90.0785 14.5329C90.0785 12.7606 91.1862 11.4314 92.7739 11.2652H92.8847H93.2908H93.4016C94.9708 11.4314 96.097 12.7606 96.097 14.5329C96.1524 15.8806 95.3585 17.136 94.0847 17.6344Z" fill="#43B02A"/>
    <path d="M73.0196 9.69597C72.0965 9.1052 71.0257 8.79136 69.918 8.80982H69.8073C68.718 8.79136 67.6288 9.1052 66.7057 9.69597C65.0996 10.7667 64.158 12.5944 64.2504 14.5144C64.2504 16.7298 65.2842 18.5206 66.9642 19.4806C67.795 19.9606 68.718 20.219 69.678 20.219C70.9334 20.256 72.1334 19.7206 72.9457 18.7606V19.1483C72.9457 19.5914 73.315 19.9606 73.758 19.9606H74.6811C75.1242 19.9606 75.4934 19.5914 75.4934 19.1483V14.5329C75.5857 12.576 74.6442 10.7483 73.0196 9.69597ZM70.8965 17.6344C70.6011 17.7267 70.3057 17.7821 70.0104 17.8006H69.7703C69.475 17.7821 69.1796 17.7267 68.8842 17.6344C67.6104 17.136 66.8165 15.899 66.8904 14.5329C66.8904 12.7606 67.998 11.4314 69.5857 11.2652H69.6965H70.1027H70.2134H70.2319C71.8011 11.4314 72.9273 12.7606 72.9273 14.5329C72.9642 15.8806 72.1519 17.136 70.8965 17.6344Z" fill="#43B02A"/>
</svg>
