<svg width="65" height="40" viewBox="0 0 65 40" fill="none"
    xmlns="http://www.w3.org/2000/svg">
    <path d="M65 8C65 25.6711 50.2242 40 32 40V8H65Z" fill="#7257FF"/>
    <path d="M0 8C0 25.6711 14.3281 40 32 40V8H0Z" fill="#42BD88"/>
    <path d="M16 8C16 16.8371 23.3867 24 32.5 24C41.6133 24 49 16.8371 49 8H16.0053H16Z" fill="white"/>
    <path d="M32.5 15C36.6421 15 40 11.6421 40 7.5C40 3.35786 36.6421 0 32.5 0C28.3579 0 25 3.35786 25 7.5C25 11.6421 28.3579 15 32.5 15Z" fill="black"/>
</svg>
