<svg width="18" height="17" viewBox="0 0 18 17" fill="none"
    xmlns="http://www.w3.org/2000/svg">
    <path d="M5.70951 11.713C2.25636 8.55275 1.349 5.27977 1.16141 3.23175C1.04703 1.983 2.02938 1.02544 3.26834 0.83195L4.69573 0.60903C6.10101 0.389564 7.42662 1.32567 7.68987 2.72341L7.91777 3.93347C8.02135 4.4834 7.71682 5.02871 7.19429 5.22899C6.59715 5.45786 6.3046 6.12636 6.60957 6.68845C6.97455 7.36113 7.53551 8.23295 8.27498 8.9097C9.01446 9.58644 9.93246 10.0681 10.6348 10.3722C11.2216 10.6263 11.8616 10.2758 12.0368 9.66074C12.1901 9.12255 12.7064 8.771 13.2633 8.82555L14.4888 8.94558C15.9043 9.08422 16.954 10.3219 16.8596 11.7411L16.7637 13.1826C16.6805 14.4338 15.8136 15.4969 14.5596 15.4934C12.503 15.4876 9.16265 14.8732 5.70951 11.713Z" stroke="white" stroke-width="1.125"/>
</svg>
