<svg width="64" height="65" viewBox="0 0 64 65" fill="none"
    xmlns="http://www.w3.org/2000/svg">
    <circle cx="32" cy="32.5" r="32" fill="white" fill-opacity="0.2"/>
    <path d="M19.2503 27.75C20.8151 27.75 22.0837 26.4815 22.0837 24.9167C22.0837 23.3519 20.8151 22.0833 19.2503 22.0833C17.6855 22.0833 16.417 23.3519 16.417 24.9167C16.417 26.4815 17.6855 27.75 19.2503 27.75Z" stroke="white" stroke-width="1.5" stroke-miterlimit="10" stroke-linecap="round" stroke-linejoin="round"/>
    <path d="M44.7503 27.75C46.3151 27.75 47.5837 26.4815 47.5837 24.9167C47.5837 23.3519 46.3151 22.0833 44.7503 22.0833C43.1855 22.0833 41.917 23.3519 41.917 24.9167C41.917 26.4815 43.1855 27.75 44.7503 27.75Z" stroke="white" stroke-width="1.5" stroke-miterlimit="10" stroke-linecap="round" stroke-linejoin="round"/>
    <path d="M41.9167 24.9167H36.25" stroke="white" stroke-width="1.5" stroke-miterlimit="10" stroke-linecap="round" stroke-linejoin="round"/>
    <path d="M27.7497 24.9167H22.083" stroke="white" stroke-width="1.5" stroke-miterlimit="10" stroke-linecap="round" stroke-linejoin="round"/>
    <path d="M25.6253 38.375V41.2083C25.6253 42.0725 25.1012 42.8233 24.3645 43.135C24.0953 43.2625 23.812 43.3333 23.5003 43.3333H20.667C19.4912 43.3333 18.542 42.3842 18.542 41.2083V38.375C18.542 37.1992 19.4912 36.25 20.667 36.25H23.5003C24.6762 36.25 25.6253 37.1992 25.6253 38.375Z" stroke="white" stroke-width="1.5" stroke-miterlimit="10" stroke-linecap="round" stroke-linejoin="round"/>
    <path d="M45.4583 38.375V41.2083C45.4583 42.3842 44.5092 43.3333 43.3333 43.3333H40.5C40.1883 43.3333 39.905 43.2625 39.6358 43.135C38.8992 42.8233 38.375 42.0725 38.375 41.2083V38.375C38.375 37.1992 39.3242 36.25 40.5 36.25H43.3333C44.5092 36.25 45.4583 37.1992 45.4583 38.375Z" stroke="white" stroke-width="1.5" stroke-miterlimit="10" stroke-linecap="round" stroke-linejoin="round"/>
    <path d="M36.25 22.7917V27.0417C36.25 28.2033 35.2867 29.1667 34.125 29.1667H29.875C28.7133 29.1667 27.75 28.2033 27.75 27.0417V22.7917C27.75 21.63 28.7133 20.6667 29.875 20.6667H34.125C35.2867 20.6667 36.25 21.63 36.25 22.7917Z" stroke="white" stroke-width="1.5" stroke-miterlimit="10" stroke-linecap="round" stroke-linejoin="round"/>
    <path opacity="0.56" d="M36.25 25.9508C39.6075 27.6508 41.9167 31.3058 41.9167 35.5417C41.9167 35.7825 41.9025 36.0092 41.8742 36.25" stroke="white" stroke-width="1.5" stroke-miterlimit="10" stroke-linecap="round" stroke-linejoin="round"/>
    <path opacity="0.56" d="M22.1255 36.25C22.0972 36.0092 22.083 35.7825 22.083 35.5417C22.083 31.3058 24.3922 27.6508 27.7497 25.9508" stroke="white" stroke-width="1.5" stroke-miterlimit="10" stroke-linecap="round" stroke-linejoin="round"/>
</svg>
