<svg width="160" height="26" viewBox="0 0 160 26" fill="none"
    xmlns="http://www.w3.org/2000/svg"
    style="margin: 0;  padding: 0;"
    >
    <path d="M5.36787 25.5593H0V20.0746C1.727 19.5237 3.53414 19.0008 5.36787 18.547V25.5593Z" fill="white"/>
    <path d="M0 13.3656V18.5892C1.72144 18.0493 3.52819 17.5357 5.36787 17.0903V16.2712C5.36787 14.1695 6.72727 12.8136 8.8535 12.8136C10.5618 12.8136 11.7337 14.002 11.9004 15.8697C13.7423 15.6417 15.5558 15.5302 17.2887 15.5766V15.0847C17.2887 13.08 16.7985 11.4552 15.8791 10.2759C10.7945 10.3814 5.05407 11.7533 0 13.3656Z" fill="white"/>
    <path d="M0 11.8802V8.61017H5.05417L5.40271 10.3728C3.551 10.8202 1.73231 11.3368 0 11.8802Z" fill="white"/>
    <path d="M5.40271 10.3728C8.36674 9.65661 11.4155 9.11764 14.3299 8.92968C13.3497 8.36436 12.1431 8.0678 10.7357 8.0678C8.47014 8.0678 6.48328 8.91523 5.40271 10.3728Z" fill="white"/>
    <path d="M22.5628 11.0978C21.4118 12.3639 20.6618 13.9838 20.4402 15.8644C22.4314 16.1947 24.1831 16.79 25.7958 17.5084C25.7816 17.3484 25.7743 17.1846 25.7743 17.0169C25.7743 15.3515 26.5072 14.0498 27.7183 13.3499C26.0982 12.4655 24.434 11.6605 22.5628 11.0978Z" fill="white"/>
    <path d="M29.6356 12.7913C27.831 11.7652 25.9426 10.744 23.7764 10.0017C25.4174 8.7857 27.5587 8.10169 29.992 8.10169C35.5109 8.10169 39.5435 11.6649 39.5772 16.9836C37.4236 16.6581 35.5616 15.9502 33.7817 15.0724C33.1409 13.6474 31.7627 12.7797 29.992 12.7797C29.8713 12.7797 29.7525 12.7836 29.6356 12.7913Z" fill="white"/>
    <path d="M34.1714 16.824C34.1736 16.8877 34.1747 16.9521 34.1747 17.0169C34.1747 18.8132 33.3444 20.181 32.0028 20.8446C33.6723 21.7691 35.3525 22.604 37.2255 23.1642C38.4323 21.9156 39.232 20.2957 39.4884 18.3988C37.517 18.1153 35.7815 17.5393 34.1714 16.824Z" fill="white"/>
    <path d="M44.0898 18.4812L46.0552 23.3821C48.7696 22.6596 51.0673 21.2566 53.4437 19.8055L53.5529 19.7388C54.0758 19.4196 54.6027 19.0986 55.1384 18.7844L57.9958 12.1364C56.7499 12.7534 55.5489 13.4788 54.3251 14.226L54.1212 14.3505C53.0995 14.9747 52.0591 15.6103 50.9658 16.1929C50.3757 17.7813 49.908 19.1975 49.7517 19.9322C49.6654 19.4496 49.3653 18.4473 48.9425 17.1667C47.4652 17.7942 45.8706 18.2757 44.0898 18.4812Z" fill="white"/>
    <path d="M51.771 14.1056C52.3285 13.7774 52.8839 13.4383 53.4437 13.0964L53.5529 13.0297C55.2194 12.0123 56.9277 10.9768 58.827 10.2026L59.5114 8.61017H53.9344L51.771 14.1056Z" fill="white"/>
    <path d="M62.8339 10.5264C61.229 11.9781 60.2284 14.0142 60.087 16.4491C61.7556 15.9053 63.5813 15.588 65.6521 15.6622C66.1522 13.8904 67.6584 12.7797 69.69 12.7797C72.1648 12.7797 73.8728 14.4746 73.8728 17.0169C73.8728 17.4134 73.8323 17.7889 73.7549 18.1406C74.7003 18.6834 75.5974 19.2683 76.4803 19.8444L76.4975 19.8556C77.131 20.2689 77.7574 20.6777 78.3907 21.0674C78.9623 19.893 79.2755 18.5415 79.2755 17.0508C79.2755 16.8666 79.2707 16.6843 79.2612 16.5043C78.0288 15.8469 76.8896 15.1034 75.775 14.376L75.6712 14.3083C72.7018 12.3708 69.8888 10.5667 65.7759 10.372C64.7325 10.3226 63.7576 10.3815 62.8339 10.5264Z" fill="white"/>
    <path d="M79.0015 14.7263C78.1577 14.2298 77.3338 13.6922 76.4975 13.1465L76.4803 13.1354C73.5222 11.2052 70.4056 9.17711 65.8465 8.96125C65.6728 8.95302 65.5007 8.94754 65.3303 8.94473C66.618 8.39709 68.091 8.10169 69.69 8.10169C74.3856 8.10169 78.0052 10.681 79.0015 14.7263Z" fill="white"/>
    <path d="M81.6267 17.5846C81.7012 20.0148 82.4598 22.0315 83.7582 23.4809C84.5768 23.6865 85.4454 23.8279 86.3814 23.8876C91.2209 24.196 94.7062 22.0427 98.3809 19.7724L98.5047 19.6959C99.2659 19.2257 100.036 18.7517 100.827 18.3011V13.2398C100.314 13.5443 99.8006 13.8596 99.2834 14.1791L99.0484 14.3243C97.8716 15.0518 96.669 15.7952 95.3978 16.4547C95.415 16.6263 95.4238 16.8026 95.4238 16.9831C95.4238 19.5254 93.681 21.2203 91.1713 21.2203C89.229 21.2203 87.835 20.213 87.284 18.6204C86.9572 18.6201 86.6248 18.6095 86.2864 18.5879C84.5468 18.477 83.0174 18.107 81.6267 17.5846Z" fill="white"/>
    <path d="M87.0277 17.2054C86.8149 17.2013 86.5995 17.1924 86.3814 17.1785C84.608 17.0655 83.0762 16.6591 81.6691 16.0779C82.0948 11.292 85.3035 8.0678 90.2302 8.0678C92.3913 8.0678 94.4478 8.91525 95.4586 10.1695V0H100.827V11.592C100.036 12.0427 99.2659 12.5167 98.5047 12.9869L98.3809 13.0633C97.2593 13.7563 96.1553 14.4384 95.0251 15.0429C94.373 13.6153 92.9688 12.7458 91.1713 12.7458C88.6268 12.7458 87.0234 14.4746 87.0234 16.9831C87.0234 17.0579 87.0248 17.132 87.0277 17.2054Z" fill="white"/>
    <path fill-rule="evenodd" clip-rule="evenodd" d="M106.455 10.7033C105.027 12.2077 104.172 14.2763 104.096 16.6988C106.275 15.8387 108.681 15.3531 111.502 15.6742C114.474 16.0126 116.713 17.1334 118.699 18.4239L121.902 18.4068V17.0847C121.902 16.5783 121.874 16.0889 121.817 15.6177C121.2 15.2065 120.606 14.7823 120.021 14.3641L119.925 14.2956C117.374 12.4735 114.962 10.7813 111.333 10.3681C109.549 10.1649 107.949 10.3166 106.455 10.7033ZM113.049 12.3051C110.923 12.3051 109.737 13.2203 109.319 15.2542H116.569C116.569 13.4576 115.21 12.3051 113.049 12.3051Z" fill="white"/>
    <path d="M121.362 13.5687C121.176 13.4367 120.99 13.3037 120.803 13.1701L120.785 13.1572C118.241 11.3405 115.552 9.42632 111.502 8.9652C110.641 8.86718 109.818 8.84432 109.029 8.88433C110.203 8.35517 111.546 8.0678 113.014 8.0678C117.21 8.0678 120.197 10.1204 121.362 13.5687Z" fill="white"/>
    <path d="M125.046 17.4276V19.2542C125.046 20.6872 125.334 21.9319 125.874 22.9486C126.926 23.3892 128.073 23.7216 129.376 23.8924C134.488 24.5619 138.224 22.2985 142.196 19.8708V14.8292C140.499 15.8601 138.743 16.8811 136.826 17.6176C136.783 20.2571 135.832 21.3559 133.586 21.3559C131.783 21.3559 130.802 20.5331 130.509 18.6998C130.076 18.6806 129.634 18.6423 129.183 18.5831C127.625 18.3791 126.27 17.9643 125.046 17.4276Z" fill="white"/>
    <path d="M130.414 17.2809C130.074 17.2617 129.729 17.2295 129.376 17.1833C127.723 16.9668 126.323 16.4902 125.046 15.8628V8.61017H130.414V17.2809Z" fill="white"/>
    <path d="M136.828 16.0882C138.667 15.3144 140.408 14.2547 142.196 13.1618V8.61017H136.828V16.0882Z" fill="white"/>
    <path d="M145.444 12.8827C145.412 13.1228 145.395 13.371 145.395 13.6271C145.395 15.2816 145.878 16.4356 146.855 17.251C149.514 16.0013 152.454 15.1994 155.983 15.6762C156.047 15.6848 156.112 15.6939 156.176 15.7035C155.982 15.6516 155.781 15.6037 155.573 15.5593L152.332 14.8814C151.112 14.6102 150.449 14.1695 150.449 13.3898C150.449 12.4746 151.216 11.8644 152.436 11.8644C153.726 11.8644 154.458 12.6441 154.458 13.7966H159.547C159.547 12.7722 159.294 11.8479 158.831 11.0555C157.787 10.7382 156.761 10.4982 155.783 10.3661C151.743 9.82034 148.562 11.1159 145.444 12.8827Z" fill="white"/>
    <path d="M156.864 9.11001C156.567 9.05425 156.274 9.00639 155.983 8.96713C152.152 8.4496 149.015 9.43882 146.178 10.872C147.353 9.06456 149.752 8.0678 152.68 8.0678C154.307 8.0678 155.736 8.44096 156.864 9.11001Z" fill="white"/>
    <path d="M48.4876 15.818C46.9722 16.4752 45.3606 16.9551 43.5429 17.1174L40.1313 8.61017H45.9175L48.0437 14.5424C48.1978 14.9801 48.3465 15.4071 48.4876 15.818Z" fill="white"/>
    <path d="M11.9209 25.5593V17.2909C13.7667 17.0555 15.5746 16.9408 17.2887 16.9895V25.5593H11.9209Z" fill="white"/>
    <path d="M29.992 25.9661C24.4973 25.9661 20.4913 22.5111 20.3742 17.2868C22.6159 17.68 24.537 18.4363 26.3508 19.342C27.0392 20.5396 28.3003 21.2594 29.8955 21.2873L30.0827 21.3943C31.9257 22.447 33.8108 23.4955 35.9538 24.2406C34.3492 25.3485 32.3006 25.9661 29.992 25.9661Z" fill="white"/>
    <path d="M46.9283 25.5593L46.5852 24.7037C49.4478 23.9146 51.8315 22.4584 54.1212 21.0596L54.1745 21.027L52.2265 25.5593H46.9283Z" fill="white"/>
    <path d="M69.69 25.9661C64.4272 25.9661 60.5301 22.7965 60.1077 17.9387C61.729 17.3581 63.4751 17.0144 65.4726 17.0697C65.4958 19.6163 67.1975 21.2881 69.69 21.2881C71.2485 21.2881 72.5029 20.616 73.2181 19.4749C74.0443 19.9582 74.8518 20.4827 75.6712 21.0173L75.775 21.085C76.3913 21.4872 77.0151 21.8944 77.6581 22.2892C75.9799 24.6009 73.1224 25.9661 69.69 25.9661Z" fill="white"/>
    <path d="M89.8816 26C88.5479 26 87.3396 25.7559 86.2844 25.2968L86.2864 25.297C91.6034 25.6359 95.4464 23.2601 99.0484 21.0334L99.2834 20.8882C99.8006 20.5687 100.314 20.2534 100.827 19.9488V25.5593H95.7723L95.4935 23.3898C94.5524 24.9492 92.3913 26 89.8816 26Z" fill="white"/>
    <path d="M113.119 26C108.253 26 104.669 22.8141 104.154 18.2091C106.303 17.2866 108.601 16.7661 111.333 17.0771C113.084 17.2764 114.551 17.7734 115.887 18.439L109.249 18.4746C109.563 20.7119 110.853 21.7627 113.223 21.7627C115.245 21.7627 116.674 21.0508 117.057 19.8305H118.243C118.807 20.2074 119.362 20.6029 119.925 21.0047L120.021 21.0731C120.426 21.3627 120.836 21.6552 121.254 21.9442C119.89 24.4707 116.925 26 113.119 26Z" fill="white"/>
    <path d="M120.735 19.8305H121.972C121.929 20.0897 121.872 20.3425 121.803 20.5885C121.47 20.3559 121.139 20.119 120.804 19.8803L120.803 19.8791L120.735 19.8305Z" fill="white"/>
    <path d="M131.46 26C130.034 26 128.805 25.6682 127.816 25.0502C128.254 25.1486 128.709 25.2301 129.183 25.2922C131.561 25.6036 133.671 25.3373 135.608 24.7468C134.464 25.5216 132.945 26 131.46 26Z" fill="white"/>
    <path d="M137.141 25.5593L136.909 24.2945C138.794 23.5606 140.523 22.5543 142.196 21.5383V25.5593H137.141Z" fill="white"/>
    <path d="M150.171 18.6441C149.505 18.5033 148.91 18.3333 148.384 18.1257C150.616 17.1988 152.995 16.6985 155.783 17.0752C156.979 17.2367 158.247 17.5594 159.532 17.9879C159.841 18.5868 160 19.306 160 20.1695C160 23.7966 156.828 26 152.297 26C147.696 26 144.803 23.6271 144.803 20.2034H149.892C149.961 21.3898 150.868 22.1017 152.506 22.1017C154.179 22.1017 154.946 21.5254 154.946 20.6441C154.946 20.1356 154.667 19.5932 153.377 19.322L150.171 18.6441Z" fill="white"/>
</svg>
