<svg width="192" height="42" viewBox="0 0 192 42" fill="none"
    xmlns="http://www.w3.org/2000/svg">
    <path d="M43.965 32.1271H40.3604V8.38989H43.965L54.6218 23.7185C55.4509 24.9053 55.9937 26.7708 56.441 28.16L57.0474 27.9575C56.6001 26.5326 56.0255 24.7366 56.0255 23.2442V8.39177H59.5984V32.129H56.0255L45.3369 16.8341C44.5078 15.6474 43.965 13.7819 43.5177 12.3927L42.9113 12.5951C43.3586 14.02 43.965 15.8161 43.965 17.3085V32.1271Z" fill="white"/>
    <path d="M70.7345 14.6631C75.9993 14.6631 79.5403 18.4278 79.5403 23.5817C79.5403 28.7356 75.9993 32.6708 70.7345 32.6708C65.4697 32.6708 61.9287 28.9399 61.9287 23.5817C61.9287 18.2234 65.4697 14.6631 70.7345 14.6631ZM70.7345 29.2455C74.371 29.2455 76.0311 26.7014 76.0311 23.5817C76.0311 20.4619 74.4047 18.0884 70.7345 18.0884C67.0643 18.0884 65.4379 20.4957 65.4379 23.5817C65.4379 26.6676 67.0643 29.2455 70.7345 29.2455Z" fill="white"/>
    <path d="M88.5046 25.9889C88.9519 27.0407 88.8883 28.4993 88.8883 29.6167H89.5265C89.5265 28.4637 89.4946 27.0388 89.9101 25.9889L94.5049 15.1711H98.0777L91.0593 32.1271H87.5183L80.3389 15.1711H83.9435L88.5064 25.9889H88.5046Z" fill="white"/>
    <path d="M107.743 14.6631C113.008 14.6631 116.549 18.4278 116.549 23.5817C116.549 28.7356 113.008 32.6708 107.743 32.6708C102.479 32.6708 98.9375 28.9399 98.9375 23.5817C98.9375 18.2234 102.479 14.6631 107.743 14.6631ZM107.743 29.2455C111.38 29.2455 113.04 26.7014 113.04 23.5817C113.04 20.4619 111.413 18.0884 107.743 18.0884C104.073 18.0884 102.447 20.4957 102.447 23.5817C102.447 26.6676 104.073 29.2455 107.743 29.2455Z" fill="white"/>
    <path d="M122.259 32.1271H119.195V7.87988H127.874C134.095 7.87988 138.849 12.6945 138.849 19.7494C138.849 26.8044 133.936 32.1946 127.713 32.1608L122.257 32.1271H122.259ZM127.299 28.5668C131.894 28.5668 135.34 24.3953 135.34 19.7832C135.34 15.1711 132.053 11.5096 127.458 11.5096H122.8V28.5668H127.299Z" fill="white"/>
    <path d="M140.188 23.5479C140.188 18.4952 143.825 14.6631 148.994 14.6631C154.164 14.6631 157.577 18.7671 157.546 23.4129V24.8378H144.081C144.081 26.872 145.805 29.5511 149.41 29.5511C151.706 29.5511 153.112 28.3306 153.462 27.2788H157.196C156.748 29.043 154.484 32.6708 149.698 32.6708C143.54 32.6708 140.19 28.6006 140.19 23.5479H140.188ZM153.716 22.2262C153.716 19.682 151.929 17.6141 149.058 17.6141C146.187 17.6141 144.113 19.9201 144.113 22.2262H153.716Z" fill="white"/>
    <path d="M165.328 32.6352C162.296 32.6352 159.361 30.6348 159.361 26.8026V15.1711H162.711V24.4628C162.711 27.9894 164.179 29.4143 166.316 29.4143C168.644 29.4143 170.974 27.9556 170.974 24.4628V15.1711H174.325V32.1271H170.974L171.006 31.3472C171.006 30.4998 171.517 29.4817 171.835 28.7018L171.229 28.43C170.943 29.2436 170.718 30.3967 170.112 30.9741C168.74 32.4327 167.527 32.6352 165.326 32.6352H165.328Z" fill="white"/>
    <path d="M184.693 32.6708C179.812 32.6708 176.685 29.6861 176.685 26.7033H180.067C180.067 27.7888 182.045 29.3149 184.979 29.3149C187.437 29.3149 188.552 28.4675 188.552 27.1776C188.552 23.2442 176.844 25.9908 176.844 19.6145C176.844 17.0029 179.333 14.6631 184.055 14.6631C188.777 14.6631 191.584 17.1379 191.584 19.7495H188.234C188.234 18.529 186.51 17.6816 183.896 17.6816C181.886 17.6816 180.259 18.3603 180.259 19.6145C180.259 22.498 192 19.9876 192 26.9057C192 30.2636 189.574 32.6708 184.693 32.6708Z" fill="white"/>
    <path d="M0 18.9077L7.50318 8.82859L10.1627 5.25704L14.0425 0.0487475L24.2464 0L26.3856 4.8352L26.539 5.18016L28.1093 8.7311L29.936 12.8595L28.8486 14.32L25.5228 18.7877L15.9646 18.8327L23.4678 8.75359L25.2982 6.29569L24.8078 5.18766L22.9194 0.916796L19.7209 5.21203L17.0632 8.7836L9.55817 18.8627L0 18.9077Z" fill="#6D37FF"/>
    <path d="M0.142578 21.6261L12.6934 21.5868L17.1422 21.5718L23.6291 21.5511L29.7941 29.6973L27.2188 34.315L27.0354 34.645L25.1432 38.0347L22.9441 41.9774L21.1249 41.9831L15.5626 41.9999L9.78684 34.3694L22.3396 34.33L25.3996 34.3206L25.9891 33.2632L28.265 29.1855L22.916 29.2023L18.4691 29.2173L5.91641 29.2567L0.142578 21.6261Z" fill="#6D37FF"/>
</svg>
