<svg width="112" height="69" viewBox="0 0 112 69" fill="none"
    xmlns="http://www.w3.org/2000/svg">
    <path fill-rule="evenodd" clip-rule="evenodd" d="M59.3043 2.16038L68.217 17.8395L68.5545 18.4332H83.458C84.5985 11.7818 90.31 6.72463 97.1852 6.72463C104.881 6.72463 111.12 13.0612 111.12 20.8779C111.12 28.6947 104.881 35.0313 97.1852 35.0313C90.31 35.0313 84.5985 29.9742 83.458 23.3227H71.3338L77.1298 33.5187C77.9107 34.8927 77.9107 36.4656 77.1298 37.8396C76.3486 39.2135 75.0076 40 73.4455 40H55.6201H37.7948C36.2327 40 34.8915 39.2136 34.1106 37.8396C33.3296 36.4656 33.3296 34.8927 34.1106 33.5187L39.9064 23.3227H27.7822C26.6418 29.9742 20.9302 35.0313 14.0551 35.0313C6.359 35.0313 0.120117 28.6947 0.120117 20.8779C0.120117 13.0612 6.359 6.72463 14.0551 6.72463C20.9302 6.72463 26.6418 11.7818 27.7822 18.4332H42.6857L43.0232 17.8396L51.936 2.16042C52.717 0.786336 54.0581 0 55.6201 0C57.1821 0 58.5232 0.786336 59.3043 2.16042V2.16038Z" fill="#2D2D2D"/>
    <path d="M6.63148 53.3636H9.66557L12.8701 61.1818H13.0065L16.211 53.3636H19.2451V65H16.8588V57.4261H16.7622L13.7508 64.9432H12.1258L9.11444 57.3977H9.01784V65H6.63148V53.3636ZM23.7323 53.3636V65H21.2721V53.3636H23.7323ZM29.8815 65H25.7565V53.3636H29.9156C31.086 53.3636 32.0936 53.5966 32.9383 54.0625C33.783 54.5246 34.4326 55.1894 34.8872 56.0568C35.3455 56.9242 35.5747 57.9621 35.5747 59.1705C35.5747 60.3826 35.3455 61.4242 34.8872 62.2955C34.4326 63.1667 33.7792 63.8352 32.9269 64.3011C32.0785 64.767 31.0633 65 29.8815 65ZM28.2167 62.892H29.7792C30.5065 62.892 31.1182 62.7633 31.6144 62.5057C32.1144 62.2443 32.4894 61.8409 32.7394 61.2955C32.9932 60.7462 33.1201 60.0379 33.1201 59.1705C33.1201 58.3106 32.9932 57.608 32.7394 57.0625C32.4894 56.517 32.1163 56.1155 31.6201 55.858C31.1239 55.6004 30.5122 55.4716 29.7849 55.4716H28.2167V62.892ZM41.5221 65H37.3971V53.3636H41.5562C42.7267 53.3636 43.7342 53.5966 44.5789 54.0625C45.4236 54.5246 46.0732 55.1894 46.5278 56.0568C46.9861 56.9242 47.2153 57.9621 47.2153 59.1705C47.2153 60.3826 46.9861 61.4242 46.5278 62.2955C46.0732 63.1667 45.4198 63.8352 44.5676 64.3011C43.7191 64.767 42.7039 65 41.5221 65ZM39.8573 62.892H41.4198C42.1471 62.892 42.7588 62.7633 43.2551 62.5057C43.7551 62.2443 44.1301 61.8409 44.3801 61.2955C44.6338 60.7462 44.7607 60.0379 44.7607 59.1705C44.7607 58.3106 44.6338 57.608 44.3801 57.0625C44.1301 56.517 43.757 56.1155 43.2607 55.858C42.7645 55.6004 42.1528 55.4716 41.4255 55.4716H39.8573V62.892ZM49.0377 65V53.3636H51.498V62.9716H56.4866V65H49.0377ZM58.1159 65V53.3636H65.9568V55.392H60.5761V58.1648H65.5534V60.1932H60.5761V62.9716H65.9795V65H58.1159ZM67.9127 53.3636H70.9468L74.1514 61.1818H74.2877L77.4923 53.3636H80.5264V65H78.14V57.4261H78.0434L75.032 64.9432H73.407L70.3957 57.3977H70.2991V65H67.9127V53.3636ZM84.559 65H81.9227L85.9397 53.3636H89.1102L93.1215 65H90.4852L87.5704 56.0227H87.4795L84.559 65ZM84.3943 60.4261H90.6215V62.3466H84.3943V60.4261ZM104.255 53.3636V65H102.13L97.0676 57.6761H96.9823V65H94.5221V53.3636H96.6812L101.704 60.6818H101.806V53.3636H104.255Z" fill="#131214"/>
</svg>
