<svg width="153" height="43" viewBox="0 0 153 43" fill="none"
    xmlns="http://www.w3.org/2000/svg">
    <path fill-rule="evenodd" clip-rule="evenodd" d="M18.7663 42.3202H3.99607C1.7981 42.3202 0 40.5221 0 38.325V27.0155L0.0848963 27.0911L5.96566 32.3112L9.98126 35.8759C11.0085 36.7876 12.5901 36.6934 13.5019 35.6662L28.7968 18.437C29.7086 17.4098 31.2902 17.3155 32.3175 18.2273L34.4679 20.1366C35.4952 21.0483 35.5894 22.6299 34.6776 23.6579L19.3827 40.8871C19.0151 41.3014 18.8105 41.8065 18.7655 42.3202H18.7663Z" fill="#636363"/>
    <path fill-rule="evenodd" clip-rule="evenodd" d="M41.6367 27.6598V38.3242C41.6367 40.5221 39.8386 42.3193 37.6406 42.3193H28.6221L41.6358 27.6598H41.6367Z" fill="#636363"/>
    <path fill-rule="evenodd" clip-rule="evenodd" d="M22.872 0.680689H37.6431C39.8402 0.680689 41.6392 2.47874 41.6392 4.67664V15.9862L41.5543 15.9106L35.6735 10.6897L31.6579 7.12498C30.6307 6.21322 29.0491 6.3066 28.1373 7.33382L12.8424 24.563C11.9306 25.5902 10.3489 25.6845 9.32085 24.7727L7.17043 22.8634C6.14318 21.9517 6.04895 20.3701 6.96074 19.3429L22.2557 2.1137C22.6233 1.69941 22.8279 1.1943 22.8729 0.67984L22.872 0.680689Z" fill="#636363"/>
    <path fill-rule="evenodd" clip-rule="evenodd" d="M3.99522 0.67984H13.0138L0 15.3402V4.67579C0 2.47789 1.7981 0.67984 3.99607 0.67984L3.99522 0.67984Z" fill="#636363"/>
    <path d="M61.9092 13.084L59.4307 15.0703C58.7744 14.3906 58.1768 13.8867 57.6377 13.5586C57.1104 13.2188 56.3428 13.0488 55.335 13.0488C54.2334 13.0488 53.3369 13.3008 52.6455 13.8047C51.9658 14.2969 51.626 14.9355 51.626 15.7207C51.626 16.4004 51.9248 17.0039 52.5225 17.5312C53.1201 18.0469 54.1396 18.6152 55.5811 19.2363C57.0225 19.8457 58.1416 20.4199 58.9385 20.959C59.7471 21.4863 60.4092 22.0723 60.9248 22.7168C61.4404 23.3613 61.8213 24.041 62.0674 24.7559C62.3252 25.4707 62.4541 26.2266 62.4541 27.0234C62.4541 28.8867 61.7744 30.4746 60.415 31.7871C59.0674 33.0996 57.4326 33.7559 55.5107 33.7559C53.6357 33.7559 51.9775 33.2461 50.5361 32.2266C49.1064 31.1953 48.0049 29.6543 47.2314 27.6035L50.29 26.7422C51.4033 29.2617 53.1084 30.5215 55.4053 30.5215C56.5186 30.5215 57.4443 30.1875 58.1826 29.5195C58.9209 28.8516 59.29 28.0078 59.29 26.9883C59.29 26.3789 59.0967 25.7695 58.71 25.1602C58.3232 24.5391 57.8428 24.0293 57.2686 23.6309C56.6943 23.2324 55.7744 22.7812 54.5088 22.2773C53.2549 21.7617 52.2881 21.293 51.6084 20.8711C50.9404 20.4375 50.3604 19.9277 49.8682 19.3418C49.376 18.7441 49.0127 18.1523 48.7783 17.5664C48.5557 16.9805 48.4443 16.3535 48.4443 15.6855C48.4443 14.0801 49.0889 12.7148 50.3779 11.5898C51.667 10.4531 53.2314 9.88477 55.0713 9.88477C56.29 9.88477 57.5264 10.1484 58.7803 10.6758C60.0342 11.2031 61.0771 12.0059 61.9092 13.084ZM69.3623 18.498V21.416C70.8271 19.2012 72.7021 18.0938 74.9873 18.0938C76.8623 18.0938 78.4736 18.8438 79.8213 20.3438C81.1807 21.832 81.8604 23.6133 81.8604 25.6875C81.8604 27.7852 81.1748 29.5957 79.8037 31.1191C78.4326 32.6426 76.8154 33.4043 74.9521 33.4043C73.874 33.4043 72.8369 33.123 71.8408 32.5605C70.8564 31.998 70.042 31.1836 69.3975 30.1172V39.8027H66.3389V18.498H69.3623ZM78.6611 25.6875C78.6611 24.4102 78.1807 23.2969 77.2197 22.3477C76.2588 21.3867 75.1279 20.9062 73.8271 20.9062C72.5029 20.9062 71.3545 21.3809 70.3818 22.3301C69.4209 23.2793 68.9404 24.3984 68.9404 25.6875C68.9404 27.0117 69.415 28.1602 70.3643 29.1328C71.3252 30.1055 72.4561 30.5918 73.7568 30.5918C75.1045 30.5918 76.2588 30.1113 77.2197 29.1504C78.1807 28.1895 78.6611 27.0352 78.6611 25.6875ZM89.1904 18.498V21.4863C89.8701 20.291 90.5322 19.4297 91.1768 18.9023C91.833 18.3633 92.6826 18.0938 93.7256 18.0938C94.0186 18.0938 94.4404 18.1641 94.9912 18.3047L94.0596 21.3633C93.4736 21.2461 93.0869 21.1875 92.8994 21.1875C91.8682 21.1875 91.001 21.5508 90.2979 22.2773C89.6064 22.9922 89.2607 23.8887 89.2607 24.9668V33H86.2021V18.498H89.1904ZM109.651 18.498H112.71V33H109.651V30.1172C108.163 32.3086 106.317 33.4043 104.114 33.4043C102.204 33.4043 100.569 32.6543 99.21 31.1543C97.8623 29.6543 97.1885 27.832 97.1885 25.6875C97.1885 23.6602 97.8682 21.8906 99.2275 20.3789C100.599 18.8555 102.204 18.0938 104.044 18.0938C105.181 18.0938 106.259 18.4043 107.278 19.0254C108.298 19.6465 109.089 20.4551 109.651 21.4512V18.498ZM110.056 25.793C110.056 24.4688 109.581 23.3379 108.632 22.4004C107.683 21.4512 106.546 20.9766 105.222 20.9766C103.933 20.9766 102.808 21.4453 101.847 22.3828C100.886 23.3203 100.405 24.4219 100.405 25.6875C100.405 27.0586 100.874 28.2246 101.812 29.1855C102.749 30.1465 103.886 30.627 105.222 30.627C106.546 30.627 107.683 30.1523 108.632 29.2031C109.581 28.2422 110.056 27.1055 110.056 25.793ZM129.515 18.498H132.573V33H129.515V30.1172C128.026 32.3086 126.181 33.4043 123.978 33.4043C122.067 33.4043 120.433 32.6543 119.073 31.1543C117.726 29.6543 117.052 27.832 117.052 25.6875C117.052 23.6602 117.731 21.8906 119.091 20.3789C120.462 18.8555 122.067 18.0938 123.907 18.0938C125.044 18.0938 126.122 18.4043 127.142 19.0254C128.161 19.6465 128.952 20.4551 129.515 21.4512V18.498ZM129.919 25.793C129.919 24.4688 129.444 23.3379 128.495 22.4004C127.546 21.4512 126.409 20.9766 125.085 20.9766C123.796 20.9766 122.671 21.4453 121.71 22.3828C120.749 23.3203 120.269 24.4219 120.269 25.6875C120.269 27.0586 120.737 28.2246 121.675 29.1855C122.612 30.1465 123.749 30.627 125.085 30.627C126.409 30.627 127.546 30.1523 128.495 29.2031C129.444 28.2422 129.919 27.1055 129.919 25.793ZM135.491 18.498H138.954L144.21 26.373L147.849 18.498H151.013L141.222 39.8027H138.022L142.804 29.4316L135.491 18.498Z" fill="#5D5D5D"/>
</svg>
