<svg width="153" height="43" viewBox="0 0 153 43" fill="none"
    xmlns="http://www.w3.org/2000/svg">
    <path fill-rule="evenodd" clip-rule="evenodd" d="M19.1267 42.3202H4.35642C2.15846 42.3202 0.360352 40.5221 0.360352 38.3251V27.0155L0.445248 27.0911L6.32602 32.3112L10.3416 35.8759C11.3689 36.7877 12.9505 36.6934 13.8623 35.6662L29.1572 18.437C30.069 17.4098 31.6506 17.3156 32.6778 18.2273L34.8283 20.1366C35.8555 21.0483 35.9497 22.6299 35.038 23.658L19.743 40.8872C19.3754 41.3015 19.1708 41.8066 19.1258 42.3202H19.1267Z" fill="#CDA0E7"/>
    <path fill-rule="evenodd" clip-rule="evenodd" d="M41.997 27.6599V38.3242C41.997 40.5221 40.1989 42.3193 38.001 42.3193H28.9824L41.9962 27.6599H41.997Z" fill="#CDA0E7"/>
    <path fill-rule="evenodd" clip-rule="evenodd" d="M23.2324 0.68072H38.0035C40.2006 0.68072 41.9995 2.47877 41.9995 4.67667V15.9862L41.9146 15.9107L36.0339 10.6897L32.0183 7.12501C30.991 6.21325 29.4094 6.30663 28.4976 7.33385L13.2027 24.563C12.2909 25.5903 10.7093 25.6845 9.6812 24.7727L7.53078 22.8635C6.50354 21.9517 6.4093 20.3701 7.32109 19.3429L22.616 2.11373C22.9836 1.69945 23.1882 1.19433 23.2332 0.679871L23.2324 0.68072Z" fill="#CDA0E7"/>
    <path fill-rule="evenodd" clip-rule="evenodd" d="M4.35557 0.679871H13.3741L0.360352 15.3402V4.67582C0.360352 2.47792 2.15846 0.679871 4.35642 0.679871L4.35557 0.679871Z" fill="#CDA0E7"/>
    <path d="M62.2695 13.084L59.791 15.0703C59.1348 14.3906 58.5371 13.8867 57.998 13.5586C57.4707 13.2188 56.7031 13.0488 55.6953 13.0488C54.5938 13.0488 53.6973 13.3008 53.0059 13.8047C52.3262 14.2969 51.9863 14.9355 51.9863 15.7207C51.9863 16.4004 52.2852 17.0039 52.8828 17.5312C53.4805 18.0469 54.5 18.6152 55.9414 19.2363C57.3828 19.8457 58.502 20.4199 59.2988 20.959C60.1074 21.4863 60.7695 22.0723 61.2852 22.7168C61.8008 23.3613 62.1816 24.041 62.4277 24.7559C62.6855 25.4707 62.8145 26.2266 62.8145 27.0234C62.8145 28.8867 62.1348 30.4746 60.7754 31.7871C59.4277 33.0996 57.793 33.7559 55.8711 33.7559C53.9961 33.7559 52.3379 33.2461 50.8965 32.2266C49.4668 31.1953 48.3652 29.6543 47.5918 27.6035L50.6504 26.7422C51.7637 29.2617 53.4688 30.5215 55.7656 30.5215C56.8789 30.5215 57.8047 30.1875 58.543 29.5195C59.2812 28.8516 59.6504 28.0078 59.6504 26.9883C59.6504 26.3789 59.457 25.7695 59.0703 25.1602C58.6836 24.5391 58.2031 24.0293 57.6289 23.6309C57.0547 23.2324 56.1348 22.7812 54.8691 22.2773C53.6152 21.7617 52.6484 21.293 51.9688 20.8711C51.3008 20.4375 50.7207 19.9277 50.2285 19.3418C49.7363 18.7441 49.373 18.1523 49.1387 17.5664C48.916 16.9805 48.8047 16.3535 48.8047 15.6855C48.8047 14.0801 49.4492 12.7148 50.7383 11.5898C52.0273 10.4531 53.5918 9.88477 55.4316 9.88477C56.6504 9.88477 57.8867 10.1484 59.1406 10.6758C60.3945 11.2031 61.4375 12.0059 62.2695 13.084ZM69.7227 18.498V21.416C71.1875 19.2012 73.0625 18.0938 75.3477 18.0938C77.2227 18.0938 78.834 18.8438 80.1816 20.3438C81.541 21.832 82.2207 23.6133 82.2207 25.6875C82.2207 27.7852 81.5352 29.5957 80.1641 31.1191C78.793 32.6426 77.1758 33.4043 75.3125 33.4043C74.2344 33.4043 73.1973 33.123 72.2012 32.5605C71.2168 31.998 70.4023 31.1836 69.7578 30.1172V39.8027H66.6992V18.498H69.7227ZM79.0215 25.6875C79.0215 24.4102 78.541 23.2969 77.5801 22.3477C76.6191 21.3867 75.4883 20.9062 74.1875 20.9062C72.8633 20.9062 71.7148 21.3809 70.7422 22.3301C69.7812 23.2793 69.3008 24.3984 69.3008 25.6875C69.3008 27.0117 69.7754 28.1602 70.7246 29.1328C71.6855 30.1055 72.8164 30.5918 74.1172 30.5918C75.4648 30.5918 76.6191 30.1113 77.5801 29.1504C78.541 28.1895 79.0215 27.0352 79.0215 25.6875ZM89.5508 18.498V21.4863C90.2305 20.291 90.8926 19.4297 91.5371 18.9023C92.1934 18.3633 93.043 18.0938 94.0859 18.0938C94.3789 18.0938 94.8008 18.1641 95.3516 18.3047L94.4199 21.3633C93.834 21.2461 93.4473 21.1875 93.2598 21.1875C92.2285 21.1875 91.3613 21.5508 90.6582 22.2773C89.9668 22.9922 89.6211 23.8887 89.6211 24.9668V33H86.5625V18.498H89.5508ZM110.012 18.498H113.07V33H110.012V30.1172C108.523 32.3086 106.678 33.4043 104.475 33.4043C102.564 33.4043 100.93 32.6543 99.5703 31.1543C98.2227 29.6543 97.5488 27.832 97.5488 25.6875C97.5488 23.6602 98.2285 21.8906 99.5879 20.3789C100.959 18.8555 102.564 18.0938 104.404 18.0938C105.541 18.0938 106.619 18.4043 107.639 19.0254C108.658 19.6465 109.449 20.4551 110.012 21.4512V18.498ZM110.416 25.793C110.416 24.4688 109.941 23.3379 108.992 22.4004C108.043 21.4512 106.906 20.9766 105.582 20.9766C104.293 20.9766 103.168 21.4453 102.207 22.3828C101.246 23.3203 100.766 24.4219 100.766 25.6875C100.766 27.0586 101.234 28.2246 102.172 29.1855C103.109 30.1465 104.246 30.627 105.582 30.627C106.906 30.627 108.043 30.1523 108.992 29.2031C109.941 28.2422 110.416 27.1055 110.416 25.793ZM129.875 18.498H132.934V33H129.875V30.1172C128.387 32.3086 126.541 33.4043 124.338 33.4043C122.428 33.4043 120.793 32.6543 119.434 31.1543C118.086 29.6543 117.412 27.832 117.412 25.6875C117.412 23.6602 118.092 21.8906 119.451 20.3789C120.822 18.8555 122.428 18.0938 124.268 18.0938C125.404 18.0938 126.482 18.4043 127.502 19.0254C128.521 19.6465 129.312 20.4551 129.875 21.4512V18.498ZM130.279 25.793C130.279 24.4688 129.805 23.3379 128.855 22.4004C127.906 21.4512 126.77 20.9766 125.445 20.9766C124.156 20.9766 123.031 21.4453 122.07 22.3828C121.109 23.3203 120.629 24.4219 120.629 25.6875C120.629 27.0586 121.098 28.2246 122.035 29.1855C122.973 30.1465 124.109 30.627 125.445 30.627C126.77 30.627 127.906 30.1523 128.855 29.2031C129.805 28.2422 130.279 27.1055 130.279 25.793ZM135.852 18.498H139.314L144.57 26.373L148.209 18.498H151.373L141.582 39.8027H138.383L143.164 29.4316L135.852 18.498Z" fill="#212121"/>
</svg>
