<svg width="1440" height="695" viewBox="0 0 1440 695" fill="none"
    xmlns="http://www.w3.org/2000/svg">
    <path d="M893.939 320.557C895.026 303.387 896.595 286.223 898.648 269.066V269.049L898.665 268.91L898.691 268.696C864.967 273.622 829.342 279.34 791.672 285.987C767.057 292.348 741.556 297.875 715.353 302.528C710.12 319.215 706.382 336.873 704.369 355.886C772.823 341.934 834.819 330.002 893.939 320.557Z" fill="#161616"/>
    <path d="M893.939 320.557C941.49 312.787 990.132 306.67 1039.49 302.251C1037.71 322.139 1036.15 345.954 1036.3 373.307C991.195 378.095 944.655 385.062 892.73 394.278C891.722 366.521 892.528 341.805 893.939 320.557Z" fill="#161616"/>
    <path fill-rule="evenodd" clip-rule="evenodd" d="M64.8527 0H0.00488281V44.7085C23.4338 44.9951 46.8141 45.8873 70.0452 47.3815C70.5636 69.9477 68.2885 93.0964 64.5445 116.966C43.1727 115.379 21.6188 114.427 0.00488281 114.117L0.00488281 177.254C7.78074 177.679 15.7121 178.127 23.7069 178.577C33.1531 179.119 42.7145 179.646 52.2759 180.16C50.7208 187.28 49.1368 194.453 47.524 201.726L45.3641 211.468C42.6569 223.861 39.921 236.435 37.329 249.189C26.4255 248.612 16.2478 248.034 6.67484 247.491H6.5366H6.49053L0.00488281 247.106V312.031C8.83672 312.875 17.6302 313.829 26.3852 314.895C23.5341 338.307 21.9501 362.205 22.6701 386.492C15.1822 385.288 7.62715 384.191 0.00488281 383.202V441.859C9.60471 442.971 19.0308 444.145 28.2831 445.38C24.7724 425.526 22.9581 405.891 22.5261 386.552C50.6284 391.073 78.1264 396.427 104.864 402.581C122.691 406.633 143.052 411.573 164.364 416.751L168.64 417.781C165.717 391.705 165.835 365.918 167.935 340.324C193.624 346.18 215.828 351.593 236.823 356.726C248.372 359.557 259.575 362.286 270.864 364.984C272.16 390.366 275.04 416.541 280.339 443.298C275.328 442.308 270.346 441.299 265.392 440.272C235.009 433.921 201.025 425.749 168.986 417.978C170.213 429.098 172.061 440.276 174.53 451.511V452.509C175.264 457.892 176.102 463.386 176.958 468.98C177.107 469.964 177.258 470.951 177.41 471.94L176.229 471.759C128.379 461.188 78.9433 452.376 28.3436 445.398C29.1212 449.707 29.9563 454.026 30.9067 458.339C33.9019 477.171 37.041 498.238 40.1514 519.944C26.9036 517.648 13.5214 515.548 0.00488281 513.646V600.694C1.46214 600.972 4.36224 601.439 8.08602 602.044C23.4102 604.532 52.7252 609.289 53.065 611.98V611.995C56.4826 637.893 60.1449 663.785 64.052 689.672L54.3178 687.548C35.7162 683.472 17.6849 679.531 0.00488281 675.806V694.987H209.299C207.646 685.593 204.979 666.91 201.659 643.019C181.277 638.945 160.723 634.568 139.682 630.01L115.116 624.667C94.8704 620.226 74.0771 615.688 52.9959 611.275L52.4487 607.326C48.6213 579.639 44.4137 549.225 40.1802 519.944C66.8485 524.51 92.4224 529.63 117.478 535.029C135.91 538.998 155.554 543.489 175.653 548.085L177.548 548.519L188.95 551.115C185.206 524.408 181.292 497.119 177.43 471.94C203.234 477.499 225.727 482.681 246.75 487.524C263.224 491.341 278.804 494.88 294.327 498.28C299.28 513.309 305.674 530.074 312.183 547.13L313.182 549.749V549.759L313.199 549.805C316.868 559.432 320.56 569.118 323.988 578.606C309.588 576.329 295.706 573.859 282.027 571.239C252.343 565.541 220.476 558.338 189.065 551.172C193.339 581.793 197.571 612.416 201.763 643.04C232.476 649.293 263.899 654.702 295.879 659.24C312.598 661.573 329.461 663.501 346.468 665.027C344.717 643.214 337.471 617.072 327.616 588.856C326.435 585.498 325.226 582.098 323.959 578.684C369.001 585.773 417.327 590.563 470.318 590.221H473.86C482.068 615.132 489.009 641.389 490.477 665.745C442.821 669.84 394.008 669.651 346.494 665.189C347.435 674.437 346.91 683.706 344.925 692.915L344.553 695H489.127C490.826 685.229 491.307 675.418 490.567 665.62C539.794 661.311 583.053 651.644 627.796 641.375L628.199 641.291C630.352 647.121 632.54 653.042 634.766 659.055L639.218 671.104C642.098 678.902 645.039 686.868 648.042 695H1439.98V247.595C1430.87 247.099 1421.8 246.58 1412.66 246.056L1412.25 246.033C1395.86 245.075 1379.25 244.117 1361.91 243.253C1365.28 220.182 1371.12 197.211 1379.39 174.431C1401.03 175.437 1421.19 176.555 1439.58 177.573H1439.65L1439.98 177.593V114.236C1427.47 113.997 1413.97 113.819 1399.63 113.706C1397.59 121.56 1395.31 129.054 1392.89 136.395C1390.57 143.22 1388.11 150.033 1385.65 156.845V156.88C1383.53 162.717 1381.42 168.569 1379.4 174.421C1331.26 172.066 1282.89 171.024 1234.51 171.299C1237.19 162.847 1240.07 154.881 1242.95 147.207C1245.65 139.768 1248.25 132.612 1250.58 125.473C1251.71 122.044 1252.81 118.552 1253.89 114.995C1307.61 113.692 1357.19 113.386 1399.53 113.704C1405.43 90.7083 1408.6 67.5679 1409.01 44.3972C1419.84 44.4973 1430.19 44.6335 1439.99 44.8017V0H1407.93C1409.05 15.918 1409.33 31.3092 1408.99 44.3972C1367.35 44.0094 1318.39 44.1762 1264.88 45.2854C1265.29 32.2057 1264.99 16.549 1263.73 0H1116.14C1121.71 16.6124 1123.71 33.458 1122.1 50.2684C1171.8 47.7985 1219.98 46.2153 1264.96 45.2854C1264.45 68.6146 1260.75 91.902 1253.88 114.995C1204.86 116.189 1152.44 118.216 1099.05 121.338C1110.21 98.2976 1119.79 75.0656 1122.09 50.3518C1074.37 52.6828 1025.13 55.9034 976.172 60.0664C981.14 40.0043 978.823 19.6778 969.323 0L794.113 0C802.563 26.3223 805.72 52.9772 803.539 79.5928C774.941 83.7974 746.977 88.4747 720.021 93.651C698.945 97.0455 677.41 99.735 655.568 101.7C662.456 74.1183 661.895 46.2213 653.897 18.7091C666.108 15.9889 678.405 13.0755 690.847 9.85492C697.62 8.31344 704.288 6.50369 710.854 4.72313C717.054 3.04127 723.16 1.38997 729.182 0H648.019C650.24 5.77396 652.114 12.4027 653.698 18.0016L653.897 18.7091C598.614 31.2313 539.454 39.2994 478.767 42.593C483.462 27.459 487.082 12.5181 489.17 0H344.565C342.223 11.0322 338.229 25.2975 333.272 40.401C307.288 38.3525 281.574 35.572 256.263 32.0737C241.556 30.035 227.079 27.8241 212.833 25.4407C212.116 17.2816 210.999 8.07853 209.487 0.00416993H88.3819C96.7711 1.81114 105.27 3.6737 113.875 5.56407C145.485 12.4945 178.524 19.7446 212.833 25.4365C213.956 37.8574 214.273 50.2226 214.1 62.6434C166.997 55.7545 118.852 50.6503 70.1028 47.3773C69.786 31.6914 68.1589 15.1938 64.8527 0ZM272.995 280.519C275.414 255.247 279.273 231.036 283.997 208.019L279.003 207.106H278.962H278.931C275.763 206.529 272.595 205.954 269.427 205.391C245.61 201.131 220.468 196.996 194.231 193.318C193.271 197.704 192.312 202.084 191.352 206.46C190.449 210.585 189.489 214.698 188.472 218.797C185.188 233.738 181.966 248.682 179.028 263.648C137.445 256.907 94.506 252.301 50.9224 249.904L37.3578 249.182C33.1243 270.61 29.1212 292.523 26.3852 314.895C77.1587 321.001 123.468 330.161 165.832 339.875L167.935 340.32C170.066 314.606 174.239 289.066 179.135 263.675C192.604 265.792 205.918 268.064 219.342 270.443C235.815 273.386 254.074 276.869 272.995 280.519ZM272.995 280.519C270.403 307.553 269.453 335.768 270.864 364.981C287.51 368.935 304.271 372.78 322.53 376.569C352.687 383.152 384.275 388.086 416.705 391.279C413.479 361.526 413.047 332.992 414.631 305.637C404.033 304.139 393.617 302.553 383.384 300.878C352.041 295.784 316.632 288.949 282.842 282.429L282.588 282.38L272.995 280.519ZM64.5445 116.966C112.323 120.547 158.287 126.835 206.18 134.23C202.868 153.937 198.577 173.644 194.229 193.295C147.82 186.887 100.326 182.476 52.3047 180.112C57.0279 158.42 61.3478 137.409 64.5445 116.966ZM1439.98 312.295C1411.33 309.098 1383.93 306.375 1357.44 304.125C1357.58 284.201 1358.88 264.568 1361.62 245.24C1361.62 244.752 1361.71 244.287 1361.8 243.816V243.802L1361.82 243.696C1361.85 243.567 1361.87 243.436 1361.9 243.304C1318.55 241.118 1274.95 240.256 1231.38 240.723L1217.87 240.931V240.514C1221.79 212.925 1227.95 190.788 1234.43 171.303H1228.04C1175.36 171.935 1122.83 174.257 1070.79 178.253C1076.19 166.623 1081.87 155.403 1087.47 144.35L1087.61 144.072C1090.81 137.827 1093.95 131.582 1097 125.447C1097.33 124.753 1097.67 124.059 1098.01 123.362C1098.35 122.667 1098.68 121.972 1099.02 121.277C1047.73 124.293 995.565 128.331 944.628 133.643C945.74 131.491 946.856 129.337 947.977 127.183L948.018 127.105C959.517 104.96 971.057 82.7299 976.163 60.0247C917.884 64.9041 860.26 71.456 803.597 79.6456C801.026 105.488 793.945 131.179 782.429 156.447C835.187 146.869 889.394 139.266 944.57 133.704C935.392 151.73 925.563 171.711 917.211 193.946C967.804 187.424 1019.07 182.185 1070.8 178.25C1059.4 202.167 1051.11 226.403 1045.97 250.818C996.289 255.58 947.134 261.546 898.693 268.693C901.705 243.636 907.909 218.691 917.268 194.002C865.948 200.579 810.71 208.892 751.239 219.259C737.704 245.378 724.528 272.343 715.312 302.481C669.681 310.665 621.644 315.295 572.999 316.197H566.548C561.252 339.518 558.637 362.962 558.715 386.423C589.896 381.315 621.406 374.226 652.451 367.241C669.907 363.313 687.215 359.42 704.236 355.93C701.699 380.938 702.335 405.999 706.139 430.97L686.872 434.954C648.85 444.906 608.358 452.482 566.373 457.499L566.203 456.757L566.03 456.187V455.618C561.076 430.832 558.916 407.877 558.83 386.423C527.881 391.577 495.286 394.048 462.553 393.722C447.196 393.51 431.901 392.693 416.82 391.279C419.297 414.214 423.415 437.868 429.578 462.196C375.377 459.67 325.9 452.274 280.454 443.292C282.585 454.108 285.091 465.007 287.971 475.989C289.555 482.761 291.801 490.283 294.422 498.277C307.958 501.246 321.493 504.077 335.548 506.783C375.493 514.487 411.693 519.432 448.442 520.496C440.839 500.497 434.359 482.788 430.874 467.955V467.482C430.586 466.416 430.341 465.358 430.088 464.3L429.996 463.924C429.857 463.348 429.718 462.772 429.578 462.194C439.168 462.653 448.931 462.959 458.838 463.083C495.017 463.506 531.154 461.633 566.321 457.512C570.897 474.357 575.908 491.231 581.38 508.45C612.083 502.251 642.086 495.056 672.047 487.87C687.106 484.256 702.154 480.651 717.262 477.167L716.795 475.605C714.071 466.503 711.369 457.471 709.054 448.425C707.921 442.468 706.942 436.648 706.116 430.966C777.309 416.2 838.018 403.988 892.708 394.271C893.227 408.759 894.302 424.071 895.934 440.206C931.561 434.132 968.086 429.363 1005.2 425.94C1016.16 424.959 1027.26 424.104 1038.49 423.372C1040.31 444.967 1043.33 468.157 1048.08 492.763C1100.87 488.835 1159.82 488.377 1233.87 493.013L1233.43 490.487C1229.46 467.907 1225.69 445.23 1222.49 422.484C1154.98 419.279 1095.11 419.667 1038.49 423.372C1037.02 405.581 1036.36 388.872 1036.27 373.3C1049.72 371.91 1063.06 370.635 1076.36 369.594C1122.49 365.996 1169.28 364.764 1215.95 365.918C1214 342.63 1213.07 319.426 1213.56 296.419C1159.97 295.4 1106.3 296.971 1053.35 301.109C1048.71 301.47 1044.08 301.859 1039.47 302.247L1039.53 301.511C1041.03 284.602 1042.53 267.665 1045.95 250.818C1102.62 245.336 1160.1 242.028 1217.85 240.923C1215.29 259.255 1213.96 277.784 1213.56 296.436C1261.82 297.406 1309.89 299.98 1357.41 304.138C1357.21 327.406 1358.57 351.048 1360.96 375.051C1313.17 370.268 1264.71 367.217 1215.98 365.923C1217.57 384.769 1219.75 403.652 1222.52 422.573C1271.62 425.098 1320.38 428.953 1368.59 434.12C1365.54 414.219 1362.83 394.514 1360.98 375.057C1385.88 377.444 1412.12 380.307 1439.95 383.675L1439.98 312.295ZM1439.98 442.29C1415.27 439.242 1391.5 436.519 1368.67 434.121C1371.21 450.831 1373.99 467.683 1377.02 484.679C1378.23 491.991 1379.53 499.346 1380.94 506.7C1332.54 500.867 1283.52 496.314 1234.09 493.062C1235.8 503.489 1237.58 513.889 1239.45 524.26C1242.35 540.423 1245.23 556.517 1248.09 572.54C1298.32 577.463 1347.72 584.18 1395.89 592.637C1392.01 568.256 1387.64 543.878 1383.3 519.73L1380.97 506.707C1399.81 508.888 1419.48 511.344 1439.98 514.074V442.29ZM1439.98 600.683C1424.94 597.827 1410.2 595.145 1395.77 592.637C1399.8 617.991 1403.32 643.444 1405.77 668.827C1358.03 659.184 1308.95 651.171 1258.89 644.846C1256.01 620.92 1252.09 596.814 1247.94 572.54C1188.36 566.627 1127.39 564.671 1066.71 566.726C1073.56 588.812 1081.94 611.739 1091.85 635.506C1074.61 635.881 1057.43 636.71 1040.39 637.99C1009.88 640.367 979.831 643.941 950.532 648.678C940.613 624.965 932.2 602.03 925.292 579.874C955.68 575.351 986.681 571.85 1018.07 569.396C1034.14 568.174 1050.33 567.286 1066.69 566.616C1058.65 540.747 1052.6 516.073 1048.08 492.702C1000 497.308 952.873 503.143 907.367 512.2C911.943 533.768 917.787 556.335 925.18 579.843C870.976 587.75 817.83 598.536 763.194 610.544C755.188 588.731 747.732 568.279 740.877 548.672L740.54 548.75C725.121 552.279 709.106 555.944 692.293 559.747C664.349 567.051 635.235 573.261 605.232 578.316C612.374 598.313 620.035 619.173 628.271 641.282C646.473 637.156 664.357 633.062 681.925 629C709.555 622.648 736.606 616.448 763.139 610.569C767.363 622.059 771.749 633.943 776.298 646.222C779.31 654.324 782.376 662.618 785.496 671.102L789.258 681.302C781.278 683.109 773.31 684.927 765.354 686.756L765.288 686.771L765.196 686.792C758.476 688.33 751.763 689.863 745.056 691.392L729.317 694.987H794.295L794.225 694.801C794.116 694.504 794.008 694.207 793.9 693.912V693.895C792.343 689.648 790.797 685.451 789.263 681.303C849.221 667.711 900.634 656.613 950.46 648.703C951.206 650.489 951.954 652.275 952.729 654.075C957.798 667.245 963.327 680.568 968.079 692.003L969.318 694.987H1116.07C1113.8 689.316 1111.06 682.678 1108.19 675.724C1104.16 665.994 1100.2 656.264 1096.31 646.534V646.493L1096.27 646.397C1094.81 642.769 1093.34 639.141 1091.87 635.513C1140.83 634.458 1194.95 637.026 1258.91 644.852C1261.05 661.655 1262.69 678.369 1263.84 694.994H1407.89C1407.34 686.284 1406.64 677.564 1405.79 668.834C1416.95 671.058 1428.33 673.365 1440 675.827L1439.98 600.683ZM88.3444 694.987C85.6891 694.413 83.0453 693.839 80.413 693.267L64.0549 689.706C64.3429 691.591 64.6175 693.352 64.8786 694.987H88.3444ZM460.18 98.9273C461.822 94.016 463.476 89.1113 465.142 84.213V84.2033C469.834 70.3591 474.522 56.515 478.765 42.6361C430.288 45.0831 381.349 44.3645 333.27 40.4997C330.754 48.114 328.038 56.2138 325.119 64.7992C323.545 69.4529 321.913 74.2594 320.223 79.2188L321.554 79.4329C339.986 82.3963 357.879 85.2708 375.23 87.8784C404.03 92.1665 432.012 95.9819 460.143 98.9801C453.035 120.198 445.553 143.12 438.733 167.678C497.139 173.493 559.259 176.491 626.391 173.618C638.947 149.026 649.69 125.802 655.565 101.743C586.541 107.918 523.361 105.601 460.18 98.9273ZM298.425 148.886C305.567 123.46 313.17 100.132 320.226 79.2036L311.298 77.8136L310.334 77.6565C279.61 72.6804 247.585 67.4944 213.927 62.7421C213.294 86.4731 210.327 110.371 206.18 134.283C224.076 137.063 241.926 139.904 259.776 142.749C272.653 144.805 285.536 146.851 298.425 148.886ZM590.25 246.033C579.802 269.226 571.853 292.665 566.433 316.255C511.656 316.811 461.43 312.225 414.631 305.708C416.157 280.733 419.046 256.867 423.297 234.111C395.62 229.503 370.798 224.674 343.928 219.441C325.497 215.848 306.057 212.059 284.025 208.019C288.259 187.287 293.212 167.524 298.425 148.9C309.571 150.634 320.918 152.397 332.437 154.132C366.737 159.252 401.93 164.027 438.736 167.691C432.89 188.656 427.536 210.815 423.303 234.097L429.463 235.124C477.961 243.02 521.909 247.587 567.988 246.837C575.246 246.712 582.647 246.443 590.25 246.033ZM590.25 246.033C598.775 226.769 608.164 208.728 617.207 191.394C618.044 189.785 618.883 188.185 619.724 186.592C622.028 182.224 624.283 177.914 626.394 173.633C679.829 171.406 732.369 165.619 782.516 156.438C775.408 172.447 767.18 188.318 758.952 204.191V204.205C756.352 209.218 753.765 214.231 751.19 219.246C734.449 222.174 718.252 225.561 702.122 228.934C666.258 236.435 630.714 243.867 590.25 246.033ZM468.313 520.824C461.661 520.824 455.037 520.824 448.442 520.573L452.33 530.774C457.888 545.276 463.849 560.862 469.609 577.321C470.557 580.005 471.478 582.761 472.409 585.542V585.551L472.449 585.674V585.692C472.944 587.177 473.445 588.67 473.949 590.158C518.708 589.558 562.998 585.587 605.217 578.389C596.578 554.065 588.6 531.009 581.429 508.528C537.922 517.21 501.058 520.526 468.313 520.824ZM717.342 477.149C724.254 500.242 732.088 523.765 740.814 548.676C750.445 546.477 760.068 544.267 769.685 542.047H769.703C815.151 531.585 860.623 521.117 907.439 512.154C902.025 486.73 898.396 462.707 895.919 440.225C837.292 450.039 779.463 462.891 717.342 477.144V477.149Z" fill="#161616"/>
    <path d="M212.831 25.437C227.077 27.8232 241.554 30.0342 256.262 32.0701C281.573 35.5685 307.288 38.349 333.273 40.3976C338.238 25.298 342.224 11.0324 344.565 0H209.493C210.997 8.07868 212.114 17.2819 212.831 25.437Z" fill="black"/>
    <path d="M478.766 42.593C483.46 27.459 487.08 12.5181 489.168 0H648.017C650.238 5.77396 652.113 12.4027 653.697 18.0016L653.895 18.7091C598.612 31.2313 539.452 39.2994 478.766 42.593Z" fill="black"/>
    <path d="M653.896 18.7091C666.106 15.9889 678.404 13.0755 690.845 9.85492C697.619 8.31344 704.286 6.50369 710.852 4.72313C717.053 3.04127 723.158 1.38997 729.18 0H794.112C802.561 26.3223 805.718 52.9772 803.538 79.5928C774.94 83.7974 746.975 88.4747 720.019 93.651C698.943 97.0455 677.408 99.735 655.566 101.7C662.455 74.1183 661.893 46.2213 653.896 18.7091Z" fill="black"/>
    <path d="M969.321 0C978.818 19.678 981.132 40.0046 976.161 60.0664C1025.12 55.9034 1074.37 52.6828 1122.08 50.3518C1119.78 75.0656 1110.21 98.2976 1099.04 121.338C1152.43 118.216 1204.85 116.195 1253.87 114.995C1252.79 118.548 1251.69 122.041 1250.55 125.473C1248.22 132.606 1245.63 139.768 1242.92 147.207C1240.04 154.881 1237.16 162.847 1234.48 171.299C1282.86 171.024 1331.24 172.066 1379.37 174.421C1383.76 161.736 1388.56 149.086 1392.88 136.395C1395.3 129.054 1397.58 121.56 1399.62 113.706C1413.96 113.817 1427.45 113.997 1439.97 114.236V44.8017C1430.18 44.6335 1419.81 44.4973 1408.98 44.3972C1409.32 31.3092 1409.04 15.918 1407.92 0H1263.72C1264.98 16.549 1265.28 32.2057 1264.88 45.2854C1318.39 44.1734 1367.34 44.0094 1408.99 44.3972C1408.58 67.5666 1405.42 90.7055 1399.51 113.7C1357.18 113.382 1307.59 113.687 1253.87 114.991C1260.75 91.8979 1264.45 68.6104 1264.96 45.2812C1219.98 46.2111 1171.8 47.7943 1122.1 50.2643C1123.7 33.4552 1121.71 16.611 1116.14 0L969.321 0Z" fill="black"/>
    <path d="M1439.64 177.582L1439.98 177.601V247.596C1430.87 247.1 1421.79 246.582 1412.66 246.058L1412.25 246.034C1395.86 245.076 1379.24 244.118 1361.91 243.254C1365.28 220.183 1371.12 197.212 1379.39 174.431C1401.03 175.437 1421.19 176.555 1439.58 177.574L1439.64 177.582Z" fill="black"/>
    <path fill-rule="evenodd" clip-rule="evenodd" d="M1439.98 312.295C1411.33 309.098 1383.92 306.375 1357.44 304.125C1357.58 284.201 1358.88 264.568 1361.61 245.24C1361.61 244.752 1361.71 244.287 1361.8 243.816V243.802L1361.82 243.696C1361.85 243.567 1361.87 243.436 1361.9 243.304C1318.55 241.118 1274.95 240.256 1231.38 240.723L1217.87 240.931V240.514C1221.79 212.925 1227.95 190.788 1234.43 171.303H1228.04C1175.36 171.935 1122.83 174.257 1070.79 178.253C1076.19 166.623 1081.87 155.403 1087.47 144.35L1087.61 144.072C1090.81 137.827 1093.95 131.582 1097 125.447C1097.33 124.753 1097.66 124.058 1098.01 123.362C1098.34 122.667 1098.68 121.972 1099.01 121.277C1047.73 124.293 995.563 128.331 944.626 133.643C957.179 109.333 970.545 84.965 976.161 60.0247C917.882 64.9041 860.258 71.456 803.595 79.6455C801.024 105.488 793.943 131.179 782.427 156.447C835.185 146.869 889.392 139.266 944.568 133.704C935.39 151.73 925.561 171.711 917.209 193.946C967.802 187.424 1019.07 182.184 1070.8 178.25C1059.4 202.166 1051.11 226.403 1045.97 250.818C996.287 255.58 947.131 261.546 898.691 268.693C901.703 243.636 907.907 218.691 917.266 194.002C865.946 200.579 810.708 208.892 751.237 219.259C737.702 245.378 724.526 272.343 715.31 302.481C669.679 310.665 621.642 315.295 572.997 316.197H566.546C561.25 339.518 558.635 362.962 558.713 386.423C607.427 378.443 656.945 365.626 704.234 355.93C701.697 380.938 702.332 405.999 706.137 430.97L686.87 434.954C648.848 444.906 608.356 452.482 566.371 457.499L566.201 456.757L566.028 456.187V455.618C561.074 430.832 558.914 407.877 558.828 386.423C527.879 391.577 495.284 394.048 462.551 393.722C447.194 393.51 431.899 392.693 416.818 391.279C419.294 414.214 423.413 437.868 429.576 462.196C375.375 459.67 325.898 452.274 280.452 443.292C282.583 454.108 285.089 465.007 287.969 475.989C289.553 482.761 291.799 490.283 294.42 498.277C307.956 501.246 321.491 504.077 335.546 506.783C375.49 514.487 411.691 519.432 448.44 520.496C440.836 500.497 434.357 482.788 430.872 467.955V467.482C430.584 466.416 430.339 465.358 430.086 464.3L429.993 463.924C429.855 463.348 429.716 462.772 429.576 462.194C439.166 462.653 448.929 462.959 458.836 463.083C495.015 463.506 531.152 461.633 566.319 457.512C570.895 474.357 575.906 491.231 581.378 508.45C627.515 499.137 672.07 487.571 717.283 477.176L716.816 475.613C714.092 466.512 711.39 457.48 709.075 448.434C707.942 442.476 706.963 436.656 706.137 430.974C777.33 416.209 838.039 403.996 892.729 394.279C893.248 408.767 894.323 424.079 895.955 440.215C931.582 434.14 968.107 429.371 1005.22 425.948C1016.18 424.968 1027.28 424.112 1038.51 423.381C1040.33 444.975 1043.35 468.166 1048.1 492.771C1100.89 488.843 1159.84 488.386 1233.89 493.021L1233.46 490.496C1229.48 467.916 1225.71 445.238 1222.51 422.493C1155.01 419.287 1095.13 419.675 1038.51 423.381C1037.04 405.589 1036.38 388.88 1036.29 373.308C1049.74 371.918 1063.08 370.644 1076.38 369.603C1122.51 366.004 1169.31 364.772 1215.97 365.926C1214.02 342.639 1213.09 319.434 1213.58 296.427C1159.99 295.408 1106.32 296.979 1053.37 301.117C1048.74 301.479 1044.1 301.868 1039.49 302.256C1041.01 285.101 1042.5 267.923 1045.97 250.827C1102.64 245.345 1160.12 242.036 1217.88 240.931C1215.31 259.264 1213.99 277.792 1213.58 296.444C1261.84 297.415 1309.91 299.988 1357.44 304.146C1357.24 327.414 1358.59 351.056 1360.98 375.06C1313.19 370.276 1264.73 367.225 1216 365.932C1217.59 384.777 1219.77 403.66 1222.54 422.582C1271.64 425.107 1320.41 428.962 1368.61 434.128C1365.56 414.228 1362.85 394.522 1361.01 375.065C1385.9 377.452 1412.14 380.315 1439.98 383.683V312.295ZM893.939 320.557C895.025 303.387 896.595 286.223 898.647 269.066V269.049L898.665 268.91L898.691 268.696C864.966 273.622 829.341 279.34 791.672 285.987C767.057 292.348 741.556 297.875 715.353 302.528C710.12 319.215 706.382 336.873 704.369 355.886C772.823 341.934 834.819 330.002 893.939 320.557ZM893.939 320.557C941.489 312.787 990.131 306.67 1039.49 302.251C1037.71 322.139 1036.15 345.954 1036.29 373.307C991.195 378.095 944.655 385.062 892.729 394.277C891.721 366.521 892.527 341.805 893.939 320.557Z" fill="black"/>
    <path d="M1368.67 434.121C1391.54 436.525 1415.31 439.248 1439.98 442.29V514.067C1419.45 511.357 1399.78 508.902 1380.97 506.7L1383.3 519.723C1387.62 543.871 1392.01 568.249 1395.89 592.63C1347.72 584.173 1298.32 577.456 1248.09 572.533C1245.23 556.51 1242.35 540.416 1239.45 524.253C1237.58 513.881 1235.8 503.481 1234.09 493.055C1283.52 496.307 1332.54 500.86 1380.94 506.693C1379.53 499.339 1378.23 491.984 1377.02 484.672C1373.99 467.682 1371.21 450.831 1368.67 434.121Z" fill="black"/>
    <path d="M1439.98 600.683C1424.93 597.827 1410.2 595.145 1395.77 592.637C1399.8 617.991 1403.32 643.444 1405.76 668.827C1358.03 659.184 1308.95 651.171 1258.89 644.846C1256.01 620.92 1252.09 596.814 1247.94 572.54C1188.36 566.627 1127.39 564.671 1066.71 566.726C1073.56 588.812 1081.94 611.739 1091.85 635.506C1074.61 635.881 1057.43 636.71 1040.38 637.99C1009.88 640.367 979.828 643.941 950.53 648.678C940.611 624.965 932.198 602.03 925.29 579.874C955.678 575.351 986.679 571.85 1018.07 569.396C1034.14 568.175 1050.33 567.286 1066.68 566.616C1058.65 540.748 1052.6 516.073 1048.08 492.702C1000 497.308 952.871 503.143 907.365 512.2C911.941 533.768 917.785 556.335 925.177 579.843C870.974 587.75 817.827 598.536 763.192 610.544C755.186 588.731 747.729 568.279 740.875 548.672L740.538 548.75C725.119 552.279 709.103 555.944 692.29 559.747C664.346 567.051 635.233 573.261 605.229 578.316C612.372 598.313 620.032 619.173 628.269 641.282C646.47 637.156 664.355 633.062 681.923 629C709.553 622.648 736.604 616.448 763.137 610.569C767.361 622.059 771.747 633.943 776.296 646.222C779.308 654.324 782.374 662.618 785.494 671.102L789.255 681.302C774.496 684.638 759.796 688.042 745.048 691.392L729.315 694.988H794.292L794.223 694.801C794.114 694.504 794.005 694.207 793.898 693.912V693.895C792.341 689.648 790.795 685.451 789.261 681.303C849.219 667.711 900.632 656.613 950.458 648.703C951.203 650.489 951.952 652.275 952.727 654.075C957.796 667.245 963.325 680.568 968.077 692.003L969.315 694.988H1116.07C1113.79 689.316 1111.06 682.678 1108.19 675.724C1102.64 662.327 1097.28 648.913 1091.86 635.506C1140.82 634.451 1194.93 637.019 1258.89 644.846C1261.03 661.648 1262.67 678.362 1263.82 694.988H1407.88C1407.32 686.277 1406.62 677.557 1405.77 668.827C1416.94 671.051 1428.31 673.358 1439.99 675.82L1439.98 600.683Z" fill="black"/>
    <path d="M639.227 671.092C642.107 678.89 645.049 686.856 648.051 694.988H489.145C490.844 685.218 491.325 675.407 490.585 665.608C539.812 661.299 583.073 651.632 627.817 641.362L628.22 641.279C630.372 647.108 632.561 653.03 634.786 659.043L639.227 671.092Z" fill="black"/>
    <path d="M344.934 692.902C346.92 683.693 347.444 674.424 346.504 665.177C394.023 669.64 442.841 669.828 490.501 665.733C489.033 641.376 482.092 615.119 473.884 590.208H470.342C417.351 590.554 369.025 585.767 323.983 578.672C325.25 582.085 326.459 585.482 327.64 588.843C337.495 617.06 344.741 643.207 346.492 665.014C329.483 663.488 312.62 661.559 295.903 659.228C263.923 654.689 232.5 649.28 201.786 643.027C197.58 612.404 193.347 581.782 189.089 551.16C220.5 558.325 252.367 565.531 282.051 571.227C295.73 573.85 309.612 576.32 324.011 578.594C320.584 569.106 316.892 559.412 313.223 549.792L313.206 549.746V549.736L312.207 547.118C305.698 530.061 299.304 513.297 294.351 498.267C278.828 494.867 263.247 491.328 246.774 487.511C225.751 482.669 203.258 477.492 177.454 471.927C181.313 497.106 185.23 524.396 188.974 551.103L177.572 548.506L175.677 548.073C155.572 543.476 135.934 538.985 117.502 535.017C92.4464 529.618 66.8724 524.497 40.2041 519.931C44.4376 549.217 48.6452 579.626 52.4727 607.313L53.0199 611.262C74.1011 615.675 94.8943 620.214 115.14 624.655L139.706 629.998C160.747 634.555 181.301 638.933 201.683 643.007C204.977 666.91 207.647 685.593 209.297 694.987H344.563L344.934 692.902Z" fill="black"/>
    <path d="M80.4111 693.267C83.0435 693.839 85.6873 694.413 88.3427 694.988H64.8764C64.6134 693.351 64.3388 691.59 64.0527 689.706L80.4111 693.267Z" fill="black"/>
    <path d="M0.00195312 675.806C17.682 679.535 35.7133 683.476 54.3178 687.552L64.052 689.676C60.1122 663.795 56.4499 637.903 53.065 611.999V611.984C52.6272 608.635 7.46102 602.098 0.00195312 600.694V675.806Z" fill="black"/>
    <path d="M40.1484 519.944C26.9007 517.647 13.5185 515.548 0.00195312 513.646V441.862C9.60178 442.974 19.0279 444.147 28.2802 445.383C24.7695 425.526 22.9551 405.891 22.5231 386.552C50.6255 391.073 78.1235 396.427 104.861 402.581C122.688 406.633 143.049 411.573 164.361 416.751L168.637 417.781C165.714 391.705 165.832 365.918 167.932 340.324C193.621 346.18 215.825 351.593 236.82 356.726C248.369 359.557 259.572 362.286 270.861 364.984C272.157 390.366 275.037 416.541 280.336 443.298C275.325 442.308 270.343 441.299 265.389 440.272C235.006 433.921 201.022 425.749 168.983 417.978C170.21 429.098 172.058 440.275 174.527 451.511V452.509C175.261 457.892 176.099 463.386 176.955 468.98C177.104 469.964 177.255 470.951 177.407 471.94L176.226 471.759C128.376 461.188 78.9403 452.376 28.3406 445.398C29.1182 449.707 29.9534 454.026 30.9038 458.339C33.8989 477.178 37.0381 498.238 40.1484 519.944Z" fill="black"/>
    <path d="M272.993 280.519L282.583 282.379L282.837 282.428C316.627 288.948 352.036 295.782 383.379 300.877C393.61 302.552 404.026 304.139 414.626 305.636C413.042 332.991 413.474 361.524 416.7 391.278C384.27 388.085 352.682 383.151 322.525 376.568C304.267 372.779 287.505 368.934 270.859 364.98C269.451 335.768 270.401 307.553 272.993 280.519Z" fill="black"/>
    <path d="M272.992 280.519C275.411 255.247 279.271 231.036 283.994 208.019C279.135 207.141 274.291 206.246 269.421 205.379C245.604 201.118 220.462 196.983 194.226 193.305C193.266 197.691 192.306 202.072 191.346 206.447C190.443 210.573 189.483 214.685 188.466 218.785C185.183 233.726 181.96 248.669 179.022 263.635C137.439 256.899 94.5011 252.297 50.9194 249.904L37.3549 249.182C33.1214 270.61 29.1182 292.523 26.3823 314.895C17.6426 313.832 8.84915 312.877 0.00195312 312.031V383.198C7.62038 384.188 15.1754 385.284 22.6671 386.488C21.9472 362.201 23.5311 338.303 26.3823 314.89C77.1558 320.997 123.465 330.157 165.829 339.871L167.932 340.316C170.063 314.601 174.236 289.062 179.132 263.671C192.601 265.788 205.915 268.059 219.339 270.439C235.812 273.386 254.071 276.869 272.992 280.519Z" fill="black"/>
    <path d="M0.00288 247.107L6.48576 247.475H6.53184H6.67008C16.2432 248.019 26.4211 248.597 37.3248 249.174C39.9168 236.419 42.6528 223.845 45.36 211.452L47.52 201.709C49.1328 194.437 50.7168 187.263 52.272 180.144C42.7104 179.629 33.1488 179.102 23.7024 178.56C15.7075 178.11 7.78752 177.662 0 177.237L0.00288 247.107Z" fill="black"/>
    <path d="M64.5428 116.968C43.1705 115.38 21.6162 114.429 0.00195312 114.118L0.00195313 44.7085C23.4313 44.995 46.812 45.8873 70.0436 47.3815C70.562 69.9481 68.2868 93.0972 64.5428 116.968Z" fill="black"/>
    <path d="M52.3027 180.113C57.0259 158.42 61.3459 137.409 64.5427 116.966C112.322 120.547 158.287 126.835 206.181 134.23C202.869 153.938 198.578 173.645 194.229 193.297C147.819 186.889 100.325 182.477 52.3027 180.113Z" fill="black"/>
    <path d="M64.8506 0C68.1568 15.1941 69.784 31.692 70.1008 47.3823C118.851 50.6554 166.997 55.7597 214.101 62.6487C214.274 50.2276 213.957 37.8622 212.834 25.4412C178.524 19.7449 145.485 12.4947 113.885 5.56C105.271 3.6696 96.7696 1.807 88.3802 0H64.8506Z" fill="black"/>
    <path d="M460.178 98.9273C466.453 80.1696 473.019 61.4328 478.765 42.6333C430.288 45.0804 381.349 44.3618 333.27 40.4969C330.755 48.1112 328.038 56.2111 325.12 64.7965C323.545 69.4501 321.913 74.2567 320.224 79.2161L321.554 79.4301C339.986 82.3936 357.879 85.268 375.231 87.8756C404.03 92.1637 432.012 95.9792 460.143 98.9774C453.035 120.195 445.553 143.117 438.733 167.675C497.139 173.49 559.259 176.488 626.391 173.615C638.947 149.023 649.69 125.8 655.565 101.741C586.538 107.918 523.358 105.601 460.178 98.9273Z" fill="black"/>
    <path d="M320.224 79.2036C313.168 100.132 305.565 123.46 298.422 148.886C267.653 144.05 236.985 139.06 206.178 134.291C210.325 110.384 213.291 86.476 213.925 62.7505C247.583 67.5028 279.608 72.6888 310.331 77.6649L311.296 77.822L320.224 79.2036Z" fill="black"/>
    <path d="M590.248 246.033C579.801 269.226 571.851 292.665 566.431 316.255C511.655 316.811 461.428 312.225 414.629 305.708C416.155 280.733 419.044 256.867 423.295 234.111C395.619 229.503 370.796 224.674 343.926 219.441C325.495 215.848 306.055 212.059 284.023 208.019C288.257 187.287 293.21 167.524 298.423 148.9C309.569 150.634 320.916 152.397 332.435 154.132C366.736 159.252 401.929 164.027 438.734 167.691C432.888 188.656 427.534 210.815 423.301 234.097L429.461 235.124C477.959 243.02 521.907 247.586 567.986 246.837C575.244 246.712 582.645 246.443 590.248 246.033Z" fill="black"/>
    <path d="M590.248 246.033C598.773 226.769 608.161 208.728 617.204 191.394C618.041 189.785 618.881 188.185 619.721 186.592C622.025 182.224 624.28 177.914 626.391 173.633C679.827 171.406 732.366 165.619 782.513 156.438C773.159 177.508 761.864 198.338 751.18 219.25C697.238 228.681 648.933 242.893 590.248 246.033Z" fill="black"/>
    <path d="M468.311 520.824C461.658 520.824 455.035 520.824 448.439 520.573L452.327 530.774C457.886 545.276 463.847 560.862 469.607 577.32C470.555 580.006 471.476 582.764 472.406 585.546L472.447 585.67V585.688C472.942 587.173 473.443 588.665 473.947 590.154C518.706 589.554 562.996 585.583 605.215 578.385C596.575 554.061 588.598 531.005 581.427 508.524C537.919 517.21 501.056 520.526 468.311 520.824Z" fill="black"/>
    <path d="M740.812 548.67C732.086 523.759 724.253 500.237 717.341 477.144C779.461 462.891 837.291 450.039 895.926 440.213C898.403 462.696 902.032 486.719 907.446 512.143C850.711 523.004 795.952 536.076 740.812 548.67Z" fill="black"/>
</svg>
